<?xml version="1.0" encoding="UTF-8"?>
<svg width="70px" height="54px" viewBox="0 0 70 54" version="1.1" xmlns="http://www.w3.org/2000/svg" xmlns:xlink="http://www.w3.org/1999/xlink">
    <!-- Generator: Sketch 52.4 (67378) - http://www.bohemiancoding.com/sketch -->
    <title>分组 43</title>
    <desc>Created with Sketch.</desc>
    <g id="Page-1" stroke="none" stroke-width="1" fill="none" fill-rule="evenodd">
        <g id="分组-43">
            <g id="分组-42">
                <g id="分组-41">
                    <path d="M3.67134151,0 C1.64329246,0 0,1.64872568 0,3.68183492 L0,50.3181651 C0,52.3520107 1.64329246,54 3.67134151,54 L66.3286585,54 C68.3559733,54 70,52.3520107 70,50.3181651 L70,3.68183492 C70,1.64872568 68.3559733,0 66.3286585,0 L3.67134151,0 Z" id="Fill1" fill="#E1EFFF"></path>
                    <g id="分组-40" transform="translate(16.000000, 9.000000)">
                        <g id="分组-39" transform="translate(0.000000, 10.000000)">
                            <g id="分组-33">
                                <g id="08_查房" transform="translate(6.000000, 3.000000)" fill="#6CC0FC" fill-rule="nonzero">
                                    <path d="M3.99948478,7.99694832 C6.20539394,7.99694832 8,6.20235019 8,3.99825618 C8,1.79234702 6.20540187,0 3.99948478,0 C1.7945902,0 0,1.79236684 0,3.99825618 C0.00101458465,6.2023383 1.79439601,7.99694832 3.99948478,7.99694832 Z" id="路径"></path>
                                    <path d="M11.0774553,9 L24.9300234,9 C24.9343494,9 24.6644096,8.94640089 24.6667889,8.94640089 C25.2873483,8.94640089 25.9961547,8.58217061 25.9961547,8.00151283 C25.9961547,7.94365016 26.0048066,7.55444915 25.9961547,7.50105148 C25.9037955,3.19953766 22.075756,0 17.4692454,0 L13.7424333,0 C9.77423365,0 10.0024279,1.96022488 10.0024279,7.89207657 C10.0024279,8.47496605 10.4566534,8.99999286 11.0774282,8.99999286 L11.0774553,9 Z" id="路径"></path>
                                </g>
                                <path d="M4,14 L30,14 L34,14 L34,26 L30,26 L30,19 L4,19 L4,26 L0,26 L0,0 L4,0 L4,14 Z" id="合并形状" fill="#0C4C8E"></path>
                            </g>
                        </g>
                        <g id="分组-38" transform="translate(23.000000, 0.000000)">
                            <g id="分组-37">
                                <g id="分组-36">
                                    <g id="分组-35" transform="translate(3.000000, 3.000000)" fill="#238AFF">
                                        <g id="分组-34">
                                            <rect id="矩形" x="2" y="0" width="2" height="6"></rect>
                                            <rect id="矩形" transform="translate(3.000000, 3.000000) rotate(-270.000000) translate(-3.000000, -3.000000) " x="2" y="0" width="2" height="6"></rect>
                                        </g>
                                    </g>
                                    <g id="搜索" fill-rule="nonzero" stroke="#6CC0FC" stroke-width="2">
                                        <path d="M7.94520635,10.6091277 L7.94713787,10.6083128 C9.80010587,9.82846281 11.0037293,8.01235235 10.9999913,6.00196199 L10.9999894,5.99998441 C10.9999894,5.32049281 10.8690826,4.66879113 10.6083718,4.05293062 C9.82824109,2.20007625 8.01218007,0.996522073 5.99729372,1.00001889 C5.32992777,0.998176229 4.66906728,1.13118719 4.0528742,1.39170101 C2.19990617,2.17155097 0.996282757,3.98766145 1.00002075,5.99805177 L1.00001889,6.00279031 C0.998176233,6.67016163 1.13118689,7.33102736 1.3916402,7.94708294 C2.17177094,9.79993732 3.98783195,11.0034915 5.99995703,10.9999909 C6.67944322,10.9999909 7.33113972,10.8690838 7.94520635,10.6091277 Z M8.72392471,12.4513003 C8.72360267,12.4514359 8.72328062,12.4515714 8.72295856,12.451707 L8.72488993,12.4508914 C8.72456816,12.4510277 8.72424637,12.4511639 8.72392458,12.4513 Z" id="形状"></path>
                                    </g>
                                </g>
                                <rect id="矩形" fill="#6CC0FC" transform="translate(11.766038, 11.194706) rotate(-45.000000) translate(-11.766038, -11.194706) " x="10.7660375" y="8.19470644" width="2" height="6"></rect>
                            </g>
                        </g>
                    </g>
                </g>
            </g>
        </g>
    </g>
</svg>