<?xml version="1.0" encoding="UTF-8"?>
<svg width="70px" height="54px" viewBox="0 0 70 54" version="1.1" xmlns="http://www.w3.org/2000/svg" xmlns:xlink="http://www.w3.org/1999/xlink">
    <!-- Generator: Sketch 52.4 (67378) - http://www.bohemiancoding.com/sketch -->
    <title>分组 24</title>
    <desc>Created with Sketch.</desc>
    <g id="Page-1" stroke="none" stroke-width="1" fill="none" fill-rule="evenodd">
        <g id="分组-24">
            <g id="分组-17">
                <path d="M3.67134151,0 C1.64329246,0 0,1.64872568 0,3.68183492 L0,50.3181651 C0,52.3520107 1.64329246,54 3.67134151,54 L66.3286585,54 C68.3559733,54 70,52.3520107 70,50.3181651 L70,3.68183492 C70,1.64872568 68.3559733,0 66.3286585,0 L3.67134151,0 Z" id="Fill1" fill="#E1EFFF"></path>
                <g id="分组-11" transform="translate(20.000000, 9.000000)">
                    <g id="分组-9">
                        <g id="分组-8">
                            <g id="分组-7">
                                <path d="M28.3698162,36 L1.63090542,36 C0.73029924,36 0,35.2534732 0,34.3335929 L0,1.66714479 C0,0.746526782 0.73029924,0 1.63090542,0 L28.3698162,0 C29.2704224,0 30,0.746526782 30,1.66714479 L30,34.3335929 C30,35.2534732 29.2704224,36 28.3698162,36" id="Fill4" fill="#238AFF"></path>
                                <path d="M26.3331489,32 L8.11129553,32 L3,26.8886371 L3,4.66685987 C3,4.29875912 3.29875519,4 3.66685108,4 L26.3331489,4 C26.7012448,4 27,4.29875912 27,4.66685987 L27,31.3331401 C27,31.7012409 26.7012448,32 26.3331489,32" id="Fill6" fill="#6CC0FC"></path>
                            </g>
                            <path d="M7.34766922,26 L3,26 L8,31 L8,26.6523308 C8,26.29225 7.70775004,26 7.34766922,26" id="Fill14" fill="#3AA6F3"></path>
                        </g>
                    </g>
                    <g id="分组-10" transform="translate(7.000000, 11.000000)" fill="#CFECFE">
                        <path d="M15.3169626,12.9993625 L0.682281828,12.9993625 C0.305251228,12.9993625 0,12.700675 0,12.3326625 L0,11.6667 C0,11.29795 0.305251228,11 0.682281828,11 L15.3169626,11 C15.6939932,11 16,11.29795 16,11.6667 L16,12.3326625 C16,12.700675 15.6939932,12.9993625 15.3169626,12.9993625" id="Fill19"></path>
                        <path d="M9.37482711,1.9993625 L0.625172891,1.9993625 C0.280082988,1.9993625 0,1.700675 0,1.3326625 L0,0.6667 C0,0.29795 0.280082988,-5.88862292e-13 0.625172891,-5.88862292e-13 L9.37482711,-5.88862292e-13 C9.71991701,-5.88862292e-13 10,0.29795 10,0.6667 L10,1.3326625 C10,1.700675 9.71991701,1.9993625 9.37482711,1.9993625" id="Fill18"></path>
                        <path d="M9.37482711,7.9993625 L0.625172891,7.9993625 C0.280082988,7.9993625 0,7.700675 0,7.3326625 L0,6.6667 C0,6.29795 0.280082988,6 0.625172891,6 L9.37482711,6 C9.71991701,6 10,6.29795 10,6.6667 L10,7.3326625 C10,7.700675 9.71991701,7.9993625 9.37482711,7.9993625" id="Fill17"></path>
                    </g>
                </g>
            </g>
        </g>
    </g>
</svg>