<?xml version="1.0" encoding="UTF-8"?>
<svg width="80px" height="27px" viewBox="0 0 80 27" version="1.1" xmlns="http://www.w3.org/2000/svg" xmlns:xlink="http://www.w3.org/1999/xlink">
    <!-- Generator: Sketch 52.4 (67378) - http://www.bohemiancoding.com/sketch -->
    <title>分组</title>
    <desc>Created with Sketch.</desc>
    <defs>
        <radialGradient cx="50.0049205%" cy="50.0026709%" fx="50.0049205%" fy="50.0026709%" r="50.3434276%" gradientTransform="translate(0.500049,0.500027),scale(1.000000,0.986494),rotate(45.389533),translate(-0.500049,-0.500027)" id="radialGradient-1">
            <stop stop-color="#00AFEC" offset="0%"></stop>
            <stop stop-color="#0068B7" offset="100%"></stop>
        </radialGradient>
    </defs>
    <g id="Page-1" stroke="none" stroke-width="1" fill="none" fill-rule="evenodd">
        <g id="医院信息系统" transform="translate(-1310.000000, -885.000000)">
            <g id="分组-16" transform="translate(1247.000000, 885.000000)">
                <g id="xinyi-3" transform="translate(63.000000, 0.000000)">
                    <g id="xinyi-2">
                        <g id="xinyi">
                            <g id="Group-11">
                                <g id="分组">
                                    <rect id="Rectangle-31" fill="#55B6F4" x="1.42108547e-14" y="0" width="79.997796" height="27" rx="13.5"></rect>
                                    <path d="M30.682337,9.33756329 L29.0833849,9.33756329 L29.0833849,14.2219336 C29.0986742,15.191555 29.0333609,16.1607859 28.888093,17.1200543 L28.9198279,17.1200093 C29.3917031,17.1233604 29.8448557,16.9392633 30.1759915,16.6096821 C30.5071273,16.2801009 30.6880268,15.8331227 30.6774547,15.3706341 L30.682337,9.33756329 Z M36.3482421,9.33756329 L37.9471942,9.33756329 L37.9471942,14.2219336 C37.9192425,15.1915626 37.9821628,16.1616596 38.1351627,17.1200093 C37.657836,17.1326369 37.1961793,16.9524666 36.8583048,16.6216913 C36.5204303,16.290916 36.3360136,15.8385877 36.3482421,15.3706341 L36.3482421,9.33756329 Z M35.4498996,9.33756329 C35.4498996,10.3737869 35.4498996,11.5177011 35.4498996,12.5515316 C35.4366701,13.4470279 35.5003649,14.3420266 35.6403091,15.2270466 C34.7078973,15.2523581 33.9208839,14.5525972 33.8558297,13.640404 C33.8411828,13.4537401 33.8558297,13.2479313 33.8558297,13.0612675 L33.8558297,9.33756329 L35.4498996,9.33756329 Z M65.0878808,12.6687948 L65.0878808,14.6359444 C65.1035605,15.6054069 65.0398865,16.5745402 64.8974712,17.5340201 C65.4345238,17.5483789 66.2010444,17.0051393 66.4134243,16.5480522 C66.5311909,16.2929436 66.5855701,16.0140939 66.5720989,15.7343893 L66.5720989,12.6687948 L65.0878808,12.6687948 Z M70.3632022,12.6687948 L70.3632022,14.6359444 C70.3462968,15.6054356 70.4099772,16.5746658 70.5536117,17.5340201 C70.014118,17.5483789 69.2475974,17.0027461 69.0327764,16.5432659 C68.9220184,16.2971078 68.8694445,16.0295925 68.878984,15.7607137 L68.878984,12.6687948 L70.3632022,12.6687948 Z M36.0797158,16.5552316 L33.8216537,16.5552316 C33.3416913,16.5552316 32.9526049,16.1737993 32.9526049,15.7032787 L32.9526049,9.33756329 L31.3536528,9.33756329 L31.3536528,15.8301144 C31.3536528,16.9333455 32.1519082,17.5268407 33.2406604,17.531627 L35.3058718,17.531627 C35.7526019,17.531627 36.0797158,17.3066731 36.0797158,16.8304411 L36.0797158,16.5552316 Z M70.3632022,9.32320453 L65.0878808,9.32320453 L65.0878808,10.2996 L69.5893582,10.2996 C70.0360883,10.2996 70.3632022,10.0746461 70.3632022,9.59841403 L70.3632022,9.32320453 Z M48.8518036,16.5504453 L42.0995875,16.5504453 C41.6601808,16.5504453 41.2378621,16.4236096 41.2378621,15.8971219 L41.2378621,9.32320453 L40.8497195,9.32320453 C40.1914946,9.32283146 39.6515249,9.83418103 39.6291454,10.4790844 C39.6291454,10.5293401 39.6291454,10.5772026 39.6291454,10.6274582 L39.6291454,16.3039533 C39.6291454,16.3374571 39.6291454,16.3637815 39.6291454,16.3972852 C39.6852967,17.0308864 40.2205974,17.5205342 40.8692487,17.531627 L48.068195,17.531627 C48.5149251,17.531627 48.8395978,17.30428 48.8395978,16.8304411 L48.8518036,16.5504453 Z M50.3775213,16.3111327 L50.3775213,10.4910501 C50.406815,9.17004446 51.722594,9.32559766 52.0594724,9.32799078 L58.0085508,9.32799078 C58.8556292,9.30645265 59.6075029,9.48115085 59.6075029,10.5532713 L59.6075029,16.3374571 C59.6075029,17.2420587 58.7848359,17.5005164 58.0085508,17.5340201 L51.8910332,17.5340201 C51.2343643,17.5292339 50.3701978,17.34257 50.3701978,16.3159189 L50.3775213,16.3111327 Z M52.5525844,10.2996 C52.1873812,10.3022205 51.8923612,10.5925041 51.8910332,10.9505303 L51.8910332,15.8923356 C51.8910307,16.2522237 52.1879182,16.5443408 52.5550255,16.545659 L57.3469996,16.545659 C57.5231017,16.5450255 57.6917342,16.4758372 57.8157994,16.3533151 C57.9398646,16.2307929 58.0091994,16.0649734 58.0085508,15.8923356 L58.0085508,10.9553165 C58.0072228,10.5972904 57.7122028,10.3070068 57.3469996,10.3043862 L52.5525844,10.3043862 L52.5525844,10.2996 Z M68.4932826,17.5196614 L67.0115056,17.5196614 L67.0115056,11.8551319 L65.0878808,11.8551319 L65.0878808,10.8978815 L70.3632022,10.8978815 L70.3632022,11.173091 C70.3632022,11.6517162 70.0360883,11.8742769 69.5893582,11.8742769 L68.4932826,11.8742769 L68.4932826,17.5196614 Z M54.0319202,15.0882453 L54.0319202,13.6523696 L52.4817911,13.6523696 L52.4817911,12.6759742 L54.0319202,12.6759742 L54.0319202,11.8455594 L52.4817911,11.8455594 L52.4817911,10.869164 L57.4251163,10.869164 L57.4251163,11.1371941 C57.4251163,11.6158193 57.0980025,11.83838 56.6512723,11.83838 L55.542991,11.83838 L55.542991,12.6687948 L57.4251163,12.6687948 L57.4251163,12.9440043 C57.4251163,13.4226295 57.0980025,13.6451902 56.6512723,13.6451902 L55.542991,13.6451902 L55.542991,15.0810659 L56.4218044,15.0810659 L56.4218044,14.3200518 L56.7025364,14.3200518 C56.8896658,14.3082706 57.0735996,14.3718332 57.211827,14.496049 C57.3500543,14.6202647 57.4306118,14.7943831 57.4348809,14.9781615 L57.4348809,15.3562754 C57.4348809,15.8349006 57.1102082,16.0574613 56.6610369,16.0574613 L52.4866734,16.0574613 L52.4866734,15.0810659 L54.0319202,15.0882453 Z M63.2228435,10.3019931 L62.7199669,10.3019931 L62.7199669,17.5268407 L61.1112502,17.5268407 L61.1112502,10.5101951 C61.1112502,9.84935155 61.6577199,9.31363203 62.3318244,9.31363203 L64.6704444,9.31363203 L64.6704444,14.5402194 C64.6704444,14.60962 64.6704444,14.6790207 64.6704444,14.7484214 C64.6168117,15.3989388 64.1908773,15.9631026 63.5719277,16.203442 C63.3974073,16.2643553 63.2149336,16.3006155 63.0299928,16.3111327 C63.1716394,15.4617098 63.2345524,14.6014598 63.2179612,13.7409153 L63.2228435,10.3019931 Z M47.8924323,16.0670338 C47.3605527,16.0677422 46.886478,15.7383852 46.7109166,15.2461916 L45.9663663,13.640404 L45.6416936,13.640404 L45.6416936,14.3296243 C45.6416936,15.499863 44.7897329,16.0526751 43.7839798,16.0335301 L42.5634056,16.0335301 C42.1069109,16.0335301 41.7895616,15.7942175 41.7895616,15.3323441 L41.7895616,15.0571346 L43.029665,15.0571346 C43.2935936,15.0571354 43.5466769,14.9541892 43.7330735,14.7710104 C43.9194701,14.5878316 44.0238608,14.339475 44.0232123,14.0807392 L44.0232123,13.6380109 L41.7846793,13.6380109 L41.7846793,12.6616154 L44.0403003,12.6616154 L44.0403003,11.8551319 L43.2127511,11.8551319 C42.8189225,11.8692904 42.4376683,11.7179111 42.1648918,11.4390728 C41.8921152,11.1602345 41.7537784,10.7804763 41.7846793,10.395325 L41.7846793,9.33277703 L48.8640093,9.33277703 L48.8640093,9.60798653 C48.8640093,10.0866118 48.5393366,10.3091725 48.0926065,10.3091725 L43.0223415,10.3091725 C43.0721201,10.6445221 43.3727071,10.8885327 43.7180688,10.8739502 L48.8444801,10.8739502 L48.8444801,11.1371941 C48.8444801,11.6158193 48.5173663,11.8407732 48.0730773,11.8407732 L45.631929,11.8407732 L45.631929,12.6568292 L48.8469213,12.6568292 L48.8469213,12.9320387 C48.8469213,13.4106639 48.5198074,13.6332246 48.0755184,13.6332246 L47.7703749,13.6332246 L48.8469213,16.0598545 L47.8924323,16.0670338 Z" id="Shape" fill="#FFFFFF"></path>
                                    <g id="Group-3" transform="translate(3.888782, 1.092965)">
                                        <ellipse id="Oval" fill="url(#radialGradient-1)" fill-rule="nonzero" transform="translate(12.499656, 12.502264) rotate(-45.000000) translate(-12.499656, -12.502264) " cx="12.4996556" cy="12.5022641" rx="8.64846529" ry="8.76686766"></ellipse>
                                        <path d="M3.9529044,13.9847839 C3.64218858,12.2805282 3.87651671,10.5263877 4.62531174,8.95125701 C6.01677668,7.21656476 8.37341961,6.04729922 10.4163797,5.82297232 C8.43454754,6.59121512 6.39480472,8.6962004 5.54383946,10.8104046 C5.07090224,11.998108 4.90038747,13.5484219 5.24785154,14.823705 C5.28645866,14.9635252 5.53740494,15.4183249 5.52614453,15.4137155 C4.92451692,15.1663413 4.26015273,14.4380471 3.95933892,13.9847839" id="Shape" fill="#D80C24"></path>
                                        <path d="M20.3140705,7.75555094 C15.6385265,6.41882103 12.0228777,15.9953936 9.53030721,13.0809847 C7.7753986,11.030616 12.4556814,5.17263883 17.7441009,5.1005076 C17.3815199,4.85666102 17.0002543,4.64014605 16.6036472,4.45286118 C10.8776853,4.47127767 5.0901199,10.4873296 6.95243966,15.0331322 C7.33311741,15.96163 8.04550605,16.5678393 8.94112547,16.72131 C14.0273592,17.6590161 17.0143369,7.71871797 20.3488212,9.32709105 C22.2885402,10.2617277 19.2873463,14.3194934 19.2873463,14.3194934 C19.2873463,14.3194934 20.866922,13.0027146 21.5271847,11.2869121 C21.3958697,10.0372597 20.981597,8.83131685 20.3140705,7.75555094 Z" id="Shape" fill="#D80C24"></path>
                                        <path d="M8.68168426,8.91211952 C7.06488476,10.9831971 6.30808499,13.4876816 7.15713928,15.6691099 C7.53397552,16.636679 8.23917531,17.2683976 9.12575685,17.4283264 C11.100629,17.8121554 12.7549557,16.4511616 14.2357189,14.757516 C12.6126649,16.7374341 10.79572,18.5206399 8.56910248,18.0888322 C7.68252093,17.9161091 6.97732115,17.2891884 6.6004849,16.3216193 C5.66230337,13.9034964 6.69117578,11.0871508 8.68168426,8.90572237" id="Shape" fill="#54C3F1"></path>
                                    </g>
                                </g>
                            </g>
                        </g>
                    </g>
                </g>
            </g>
        </g>
    </g>
</svg>