<?xml version="1.0" encoding="UTF-8"?>
<svg width="533px" height="403px" viewBox="0 0 533 403" version="1.1" xmlns="http://www.w3.org/2000/svg" xmlns:xlink="http://www.w3.org/1999/xlink">
    <!-- Generator: Sketch 52.4 (67378) - http://www.bohemiancoding.com/sketch -->
    <title>远程医疗服务协同平台插画</title>
    <desc>Created with Sketch.</desc>
    <defs>
        <polygon id="path-1" points="0 146 0 0 448.920381 0 448.920381 146"></polygon>
        <linearGradient x1="60.226937%" y1="100%" x2="60.2269351%" y2="26.1682602%" id="linearGradient-3">
            <stop stop-color="#F2F9FF" offset="0%"></stop>
            <stop stop-color="#86C6F8" offset="100%"></stop>
        </linearGradient>
        <linearGradient x1="50%" y1="0%" x2="50%" y2="100%" id="linearGradient-4">
            <stop stop-color="#F6CE52" offset="0%"></stop>
            <stop stop-color="#E88CAB" offset="100%"></stop>
        </linearGradient>
        <linearGradient x1="50%" y1="0%" x2="50%" y2="100%" id="linearGradient-5">
            <stop stop-color="#4EBBCC" offset="0%"></stop>
            <stop stop-color="#2F8AF6" offset="100%"></stop>
        </linearGradient>
        <path d="M257.820864,85.0359933 L155.623756,116.908084 C48.4999807,94.1753827 -2.63644048,71.1939307 2.21449198,47.9637277 C7.02685144,24.9182435 95.2057466,33.7067468 258.174946,80.709089 C259.045789,80.9602508 258.927761,82.4025522 257.820864,85.0359933 Z" id="path-6"></path>
        <filter x="-23.0%" y="-60.4%" width="145.9%" height="245.4%" filterUnits="objectBoundingBox" id="filter-7">
            <feOffset dx="0" dy="10" in="SourceAlpha" result="shadowOffsetOuter1"></feOffset>
            <feGaussianBlur stdDeviation="18" in="shadowOffsetOuter1" result="shadowBlurOuter1"></feGaussianBlur>
            <feColorMatrix values="0 0 0 0 0.31372549   0 0 0 0 0.466666667   0 0 0 0 0.952941176  0 0 0 1 0" type="matrix" in="shadowBlurOuter1"></feColorMatrix>
        </filter>
        <path d="M258.174946,81.3622449 L154.468561,113.560268 C34.3873278,86.6341943 -15.597833,59.405785 4.51307859,31.8750399 C17.9064788,13.5402027 98.9764312,26.6276706 164.756138,46.8178013 C185.941005,53.3201904 217.080608,59.5866524 258.174946,65.6171875 L258.174946,81.3622449 Z" id="path-8"></path>
        <filter x="-3.9%" y="-8.8%" width="107.8%" height="122.1%" filterUnits="objectBoundingBox" id="filter-9">
            <feOffset dx="0" dy="2" in="SourceAlpha" result="shadowOffsetOuter1"></feOffset>
            <feGaussianBlur stdDeviation="3" in="shadowOffsetOuter1" result="shadowBlurOuter1"></feGaussianBlur>
            <feColorMatrix values="0 0 0 0 0.31372549   0 0 0 0 0.466666667   0 0 0 0 0.952941176  0 0 0 1 0" type="matrix" in="shadowBlurOuter1"></feColorMatrix>
        </filter>
    </defs>
    <g id="Page-1" stroke="none" stroke-width="1" fill="none" fill-rule="evenodd">
        <g id="远程医疗协同服务平台" transform="translate(-323.000000, -370.000000)">
            <g id="远程医疗服务协同平台插画" transform="translate(323.000000, 370.000000)">
                <g id="远程医疗协同服务平台">
                    <g id="Group-9">
                        <g id="Group-8">
                            <g id="Group-3">
                                <g id="Group-2">
                                    <path d="M0.5117748,0 L0,248.176768 C116.819096,243.134443 202.996198,240.613281 258.531306,240.613281 C314.066414,240.613281 403.357083,243.134443 526.403311,248.176768 L526.915086,0 C403.503443,11.2241904 312.876421,16.8362856 255.03402,16.8362856 C197.191618,16.8362856 112.35087,11.2241904 0.5117748,0 Z" id="Path-69" fill="#5077F3" opacity="0.9"></path>
                                    <path d="M19,8 L19,237.998047 C127.883311,233.298259 208.206209,230.948365 259.968692,230.948365 C311.731175,230.948365 394.956127,233.298259 509.643548,237.998047 L509.643548,8 C394.615536,18.4617058 310.145012,23.6925588 256.231975,23.6925588 C202.318939,23.6925588 123.241614,18.4617058 19,8 Z" id="Path-69-Copy" fill="#94B0F8"></path>
                                    <g id="Group-157" transform="translate(255.000000, 39.000000)">
                                        <circle id="Oval-21" fill="#94B0F8" cx="8.5" cy="8.5" r="8.5"></circle>
                                        <circle id="Oval-21-Copy" fill="#FFFFFF" cx="8.5" cy="10.0454545" r="4.63636364"></circle>
                                    </g>
                                </g>
                            </g>
                            <g id="Group-101" transform="translate(39.000000, 68.000000)">
                                <g id="将">
                                    <g id="Group-150">
                                        <g id="Group-150-+-将-Mask">
                                            <mask id="mask-2" fill="white">
                                                <use xlink:href="#path-1"></use>
                                            </mask>
                                            <use id="Mask" fill="#EEF8FE" xlink:href="#path-1"></use>
                                            <g id="Group-150" mask="url(#mask-2)">
                                                <g transform="translate(281.456422, 112.501903) rotate(-5.000000) translate(-281.456422, -112.501903) translate(254.956422, 91.001903)">
                                                    <ellipse id="Oval-7-Copy-4" fill="#FF8D89" transform="translate(29.230990, 3.263852) rotate(4.000000) translate(-29.230990, -3.263852) " cx="29.2309899" cy="3.26385224" rx="2.23098987" ry="2.26385224"></ellipse>
                                                    <g id="Group-25-Copy" stroke-width="1" fill="none" transform="translate(0.000000, 9.000000)">
                                                        <path d="M0,27.2572465 C6.03517498,7.27578125 11.2518739,1.37138445 15.6500968,9.54405608 C16.1648216,10.5005052 16.6882685,11.2240434 17.2279336,12.0811975 C19.2899346,15.3562891 20.9896078,17.8841869 22.762208,16.6015831 C23.9139488,15.7682158 25.3951027,11.8350834 27.2056699,4.80218597 C28.522903,-2.50813977 30.0939709,-1.47213176 31.9188735,7.91020998 C32.5501968,11.1560222 33.5101369,13.4195223 34.6348658,14.9135902 C38.3868475,19.897649 43.9726365,16.3192978 45.3105179,12.0811975 C45.9037174,10.2020782 47.3885148,7.75540549 48.5521569,11.486227 C49.2924684,13.8597833 50.4605595,21.098763 52.0564302,33.2031662 C41.6876012,31.1949214 33.6960936,29.8701709 28.0819074,29.2289149 C22.4677213,28.5876589 13.1070855,27.9304361 0,27.2572465 Z" id="Path-5" fill="#4DA4FD"></path>
                                                        <path d="M0.0169905502,26.4167636 C1.01325363,24.7007899 8.73580605,5.19830879 14.2357702,13.3224662 C17.902413,18.7385711 21.2162266,18.478901 24.1772111,12.5434558 C27.6229853,8.32689691 30.5717491,10.8489906 33.0235025,20.1097369 C35.2277951,28.4357759 36.3237468,27.1088726 39.1336021,17.8163949 C39.2310579,17.4940986 39.4437453,16.770361 39.9317562,16.2056111 C40.3330188,15.7412505 40.962873,15.422088 41.5025018,15.197401 C41.7227616,15.1056907 42.659219,15.5910794 43.0690431,15.9666653 C43.5896767,16.4438034 43.8542668,17.2326562 44.1862233,17.8163949 C44.7794841,18.8596317 47.1549987,23.7370164 51.3127669,32.4485488 C39.5664338,30.1505403 31.3370747,28.7743229 26.6246895,28.3198967 C9.00217486,26.6205168 -0.457044387,27.2332462 0.0169905502,26.4167636 Z" id="Path-6" fill="#69B1FC"></path>
                                                        <path d="M0,26.4957195 C2.33257231,14.2988279 5.99360865,10.2331973 10.983109,14.2988279 C13.014095,15.9537508 13.3143789,17.624683 14.9226145,17.7711439 C16.4844136,17.9133758 18.8850287,16.2695422 22.1244596,12.8396432 C23.6900847,11.8186238 25.0856917,11.8186238 26.3112807,12.8396432 C27.7602386,14.0467479 29.0173688,16.8747049 31.2602928,19.634968 C33.4510438,22.3310241 34.9235673,22.7155702 37.0393138,22.8200772 C38.5487524,22.8946358 41.0159481,21.8329327 44.4409009,19.634968 C46.3227545,18.9313029 47.5785647,19.1666156 48.2083314,20.340906 C50.5130925,24.6384641 51.3127669,32.4485488 51.3127669,32.4485488 C51.3127669,32.4485488 42.7618226,30.431193 25.6563835,28.4467793 C20.9334048,27.8988633 12.381277,27.24851 0,26.4957195 Z" id="Path-4" fill="#7CEDED"></path>
                                                    </g>
                                                </g>
                                            </g>
                                        </g>
                                        <g id="Group" transform="translate(25.000000, 17.000000)">
                                            <g id="Group-125" transform="translate(232.000000, 6.000000)">
                                                <path d="M49.7372393,57 C49.704654,57 49.670492,56.9935321 49.6379067,56.9800573 C36.9427832,51.6817679 0.625952892,51.8882018 0.264886866,51.8892797 L0.26278459,51.8892797 C0.193409458,51.8892797 0.126662172,51.8607132 0.0777842385,51.8111259 C0.0278551665,51.7599217 0,51.6914697 0,51.6197838 L0,0.269495901 C0,0.120734164 0.117727496,0 0.26278459,0 C0.408367252,0 0.525569179,0.120734164 0.525569179,0.269495901 L0.525569179,51.34921 C3.86451017,51.345976 37.6223441,51.3831664 49.8360463,56.4809509 C49.970592,56.537006 50.035237,56.6943916 49.9805778,56.8323735 C49.9390578,56.936399 49.8407764,57 49.7372393,57" id="Fill-384" fill="#75E4FF"></path>
                                                <polygon id="Fill-386" fill="#1AD3FF" points="4 38 7 38 7 15 4 15"></polygon>
                                                <polygon id="Fill-388" fill="#08217E" points="4 48 7 48 7 31 4 31"></polygon>
                                                <polygon id="Fill-390" fill="#1AD3FF" points="16 23 13 22.8906751 13 0 16 0.109324903"></polygon>
                                                <polygon id="Fill-391" fill="#08217E" points="16 48 13 47.8856904 13 17 16 17.1137704"></polygon>
                                                <polygon id="Fill-392" fill="#1AD3FF" points="25 40 22 39.792924 22 8 25 8.20707596"></polygon>
                                                <polygon id="Fill-393" fill="#08217E" points="25 47 22 46.787325 22 32 25 32.212675"></polygon>
                                                <polygon id="Fill-394" fill="#1AD3FF" points="35 23 32 22.5859459 32 8 35 8.41405414"></polygon>
                                                <polygon id="Fill-395" fill="#08217E" points="35 50 32 49.6055692 32 15 35 15.3944308"></polygon>
                                                <polygon id="Fill-396" fill="#1AD3FF" points="44 34 41 33.3917048 41 9 44 9.60829523"></polygon>
                                                <polygon id="Fill-397" fill="#08217E" points="44 51 41 50.3917048 41 26 44 26.6082952"></polygon>
                                            </g>
                                            <g id="Group-26" transform="translate(312.000000, 10.000000)">
                                                <path d="M13,1.64773283 L22.5610215,17.561997 L28.6967176,4.83376048 L33.9647814,19.5313207 L39.8440163,16.2831972 L45.6609809,18.6918603 L51.5448284,1.64773283 L57.5379948,2.64173237 L63.193518,0.810606861 L69.2429583,13.5220355 L75.2347409,4.83376048 C79.3951028,5.41996119 82.3464782,6.31228842 84.0888672,7.51074219 C85.8312562,8.70919595 88.4285226,11.6333476 91.8806665,16.2831972 L91.8806665,38.2362061 L0.858398438,38.2362061 L0.858398438,9.03027344 L13,1.64773283 Z" id="Path-7" fill="url(#linearGradient-3)"></path>
                                                <polyline id="Path-8" stroke="#5077F3" points="0.557617188 9.13476562 13.79884 1.74890549 23.3540463 18.267519 29.4478972 5.02716319 34.7751106 20.2651715 40.6487019 16.7643362 46.4851215 19.3295255 52.3318152 1.74890549 58.3293891 2.76280335 64.0189689 0.810606861 70.1031229 14.0702544 76.0788786 5.02716319 84.3818359 7.54589844 91.6474609 16.7643362"></polyline>
                                                <circle id="Oval-8" fill="#6487F4" cx="12.5" cy="1.31060686" r="1"></circle>
                                                <circle id="Oval-8-Copy" fill="#6487F4" cx="22.0860798" cy="17.5227441" r="1"></circle>
                                                <circle id="Oval-8-Copy-2" fill="#6487F4" cx="28.4767997" cy="4.5530343" r="1"></circle>
                                                <circle id="Oval-8-Copy-3" fill="#6487F4" cx="34.0686796" cy="19.9545647" r="1"></circle>
                                                <circle id="Oval-8-Copy-4" fill="#6487F4" cx="39.6605595" cy="15.9015304" r="1"></circle>
                                                <circle id="Oval-8-Copy-5" fill="#6487F4" cx="45.2524394" cy="18.3333509" r="1"></circle>
                                                <circle id="Oval-8-Copy-6" fill="#6487F4" cx="50.8443193" cy="1.31060686" r="1"></circle>
                                                <circle id="Oval-8-Copy-7" fill="#6487F4" cx="62.826919" cy="0.5" r="1"></circle>
                                                <circle id="Oval-8-Copy-9" fill="#6487F4" cx="69.2176389" cy="13.4697098" r="1"></circle>
                                                <circle id="Oval-8-Copy-10" fill="#6487F4" cx="74.8095188" cy="4.5530343" r="1"></circle>
                                                <circle id="Oval-8-Copy-11" fill="#6487F4" cx="81.2002387" cy="6.98485488" r="1"></circle>
                                                <circle id="Oval-8-Copy-8" fill="#6487F4" cx="57.2350391" cy="2.12121372" r="1"></circle>
                                            </g>
                                            <g id="Group-147" transform="translate(313.000000, 63.000000)">
                                                <ellipse id="Oval-7-Copy" fill="#94B0F8" cx="1.85915822" cy="1.88654354" rx="1.85915822" ry="1.88654354"></ellipse>
                                                <ellipse id="Oval-7-Copy-2" fill="#94B0F8" cx="1.85915822" cy="14.8865435" rx="1.85915822" ry="1.88654354"></ellipse>
                                                <ellipse id="Oval-7-Copy-3" fill="#94B0F8" cx="1.85915822" cy="27.8865435" rx="1.85915822" ry="1.88654354"></ellipse>
                                                <polygon id="Rectangle-31-Copy-6" fill="#C9E4F9" points="10 1 90 1 90 3 10 3"></polygon>
                                                <polygon id="Rectangle-31-Copy-11" fill="#C9E4F9" points="10 14 90 14 90 16 10 16"></polygon>
                                                <polygon id="Rectangle-31-Copy-7" fill="#C9E4F9" points="10 27 38.4444444 27 38.4444444 29.4000001 10 29.4000001"></polygon>
                                            </g>
                                            <g id="154">
                                                <path d="M27.9895856,58.3555717 C27.9895856,58.3555717 27.3659797,74.8140276 27.3659797,77.4818309 C27.3659797,80.139131 26.2538826,83.1850482 26.2538826,84.3193898 C26.2538826,85.4432282 27.1269308,85.5062471 27.1269308,88.9617876 C27.1269308,92.406825 25.8901125,97.4903557 25.8901125,99.3704218 C25.8901125,101.250488 27.3140126,101.817659 27.3140126,103.004516 C27.3140126,104.191373 27.1269308,108.959809 25.952473,108.959809 C24.7780153,108.959809 19.4357915,109.274904 20.5582821,108.140563 C21.6703793,107.016724 22.9071976,105.808861 23.229394,104.758544 C23.5204101,103.792253 22.8864108,103.508668 22.7305093,101.061431 C22.3771326,95.3477105 19.5085456,93.8562614 19.446185,89.8440533 C19.3838244,85.8318452 20.8700851,85.0756175 20.9324457,82.8804565 C20.9948063,80.6852955 20.8077245,79.624476 20.6830033,76.8621443 C20.5582821,74.0998125 17.1492366,66.2014342 17.2115972,58.6811697 C17.2739578,51.1609053 18.8849397,49.9635447 19.0720214,47.8944217 C19.2591032,45.8252986 18.8121857,43.9977483 19.6332667,40.8047869 C20.0074303,39.3658536 17.7728425,32.4337663 17.2739578,30.5221907 C16.8374337,28.8206783 16.4009096,37.2337116 16.0995001,39.3658536 C15.7876971,41.4979956 9.58281855,49.8270036 8.9696061,51.8436108 C8.20049217,54.3643699 7.73278776,61.8741312 4.25098823,61.8741312 C0.769188709,61.8741312 4.00154588,52.5998385 2.95180931,54.7319806 C1.87089244,56.8536194 -0.602744239,55.4251893 0.135189392,55.1626102 C0.758795278,54.9420438 1.71499097,54.4799047 1.93325303,53.7866959 C2.51528519,51.9066298 4.54200431,50.1526017 5.84118324,49.6484498 C7.14036217,45.6467449 7.33783737,46.8651117 7.88868923,44.5754223 C7.76396806,40.8152901 9.93619522,37.6748444 12.2955042,33.4210636 C12.2955042,30.5957128 12.6696677,30.4696748 12.6696677,27.0876565 C12.6696677,17.6873259 18.0326783,17.823867 20.2672661,17.8763828 C20.5478887,17.8763828 23.15664,16.3219148 24.4038518,15.1980764 C24.5909335,14.4418486 24.5701467,11.7215295 24.5701467,11.7215295 C23.8633933,11.301403 24.1855897,9.91498554 23.8529999,9.82045708 C22.844837,9.51586536 22.7616896,8.90668193 22.7616896,8.20297003 C21.7639202,5.75573313 22.6681487,5.47214774 23.1358531,5.94479006 C23.1358531,0.462139157 25.8381453,0 27.999979,0 C30.1618128,0 32.8641049,0.472642319 32.8641049,5.94479006 C33.3318094,5.47214774 34.2360379,5.75573313 33.2382685,8.20297003 C33.2382685,8.90668193 33.155121,9.51586536 32.1469582,9.82045708 C31.8143684,9.9254887 32.1261713,11.301403 31.4298114,11.7215295 C31.4298114,11.7215295 31.4090245,14.4523518 31.5961063,15.1980764 C32.8537115,16.3219148 35.4624628,17.8763828 35.732692,17.8763828 C37.9672798,17.8343702 43.3302904,17.6873259 43.3302904,27.0876565 C43.3302904,30.4696748 43.7044539,30.5957128 43.7044539,33.4210636 C46.0637628,37.6853476 48.23599,40.8152901 48.1112688,44.5754223 C48.6621207,46.8651117 48.8595959,45.657248 50.1587748,49.6484498 C51.4579537,50.1526017 53.4846729,51.9066298 54.066705,53.7866959 C54.2849671,54.4799047 55.2411628,54.9420438 55.8647687,55.1626102 C56.6027023,55.4251893 54.1290656,56.8536194 53.0689356,54.7214774 C52.019199,52.5893354 55.2411628,61.863628 51.7697567,61.863628 C48.2983506,61.863628 47.8306462,54.3538667 47.0511388,51.8331077 C46.4275329,49.8165004 40.2226544,41.4874925 39.9212449,39.3553504 C39.6094419,37.2232084 39.1833112,28.8206783 38.7467871,30.5116875 C38.2479024,32.4232631 36.0133147,39.3553504 36.3874782,40.7942837 C37.2085593,43.976742 36.7616417,45.8147955 36.9487235,47.8839185 C37.1358053,49.9530416 38.7467871,51.1398989 38.8091477,58.6706666 C38.8715083,66.190931 35.4624628,74.0893093 35.3377416,76.8516411 C35.2130204,79.6139729 35.0259387,80.6747923 35.0882993,82.8699533 C35.1506598,85.0651143 36.6369205,85.821342 36.57456,89.8335501 C36.5121994,93.8457583 33.6332189,95.3372074 33.2902356,101.050928 C33.1343342,103.508668 32.5003348,103.78175 32.7913509,104.748041 C33.1135473,105.808861 34.3399722,107.006221 35.4624628,108.130059 C36.57456,109.253898 31.2427296,108.949306 30.0682719,108.949306 C28.8938141,108.949306 28.7067324,104.18087 28.7067324,102.994013 C28.7067324,101.807156 30.1306325,101.239985 30.1306325,99.3599187 C30.1306325,97.4798526 28.8938141,92.3963218 28.8938141,88.9512845 C28.8938141,85.5062471 29.7668624,85.4432282 29.7668624,84.3088866 C29.7668624,83.1850482 28.6547652,80.1286279 28.6547652,77.4713277 C28.6131915,74.8245307 27.9895856,58.3555717 27.9895856,58.3555717 Z" id="XMLID_32_" fill="#D3D3D3" fill-rule="nonzero"></path>
                                                <g id="XMLID_2_" transform="translate(21.000000, 42.000000)" fill="url(#linearGradient-4)">
                                                    <path d="M9.85106383,4.64516129 C9.61702128,4.59139785 9.38297872,4.53763441 9.14893617,4.46236559 C8.39361702,4.20430108 8,3.64516129 8.0106383,2.87096774 C8.03191489,1.01075269 9.75531915,-0.376344086 11.4361702,0.139784946 C12.106383,0.344086022 12.6382979,0.76344086 13.0212766,1.33333333 C14.2446809,3.12903226 14.9574468,5.11827957 14.9255319,7.31182796 C14.9042553,9.06451613 13.5,10.2150538 11.8404255,9.94623656 C10.8723404,9.78494624 10.2978723,9.16129032 10.2340426,8.16129032 C10.212766,7.8172043 10.2234043,7.47311828 10.2553191,7.12903226 C10.287234,6.80645161 10.3723404,6.48387097 10.4361702,6.11827957 C10.0531915,6.09677419 9.82978723,6.31182796 9.69148936,6.59139785 C9.55319149,6.89247312 9.45744681,7.21505376 9.40425532,7.52688172 C9.36170213,7.82795699 9.39361702,8.13978495 9.39361702,8.48387097 C8.9787234,8.12903226 9.06382979,7.46236559 9.85106383,4.64516129 Z" id="XMLID_31_"></path>
                                                    <path d="M5.62765957,8.46236559 C5.57446809,7.5483871 5.74468085,6.53763441 4.57446809,6.02150538 C4.65957447,6.56989247 4.74468085,7.02150538 4.77659574,7.47311828 C4.79787234,7.8172043 4.78723404,8.17204301 4.72340426,8.50537634 C4.53191489,9.50537634 3.67021277,10.0752688 2.57446809,9.97849462 C1.03191489,9.83870968 0.0531914894,8.83870968 0.0744680851,7.1827957 C0.106382979,4.96774194 0.787234043,2.92473118 2.13829787,1.16129032 C2.86170213,0.225806452 3.84042553,-0.172043011 5.0212766,0.150537634 C6.22340426,0.47311828 7.20212766,2.06451613 6.94680851,3.30107527 C6.79787234,4.04301075 6.25531915,4.38709677 5.57446809,4.55913978 C5.43617021,4.59139785 5.29787234,4.61290323 5.12765957,4.64516129 C5.57446809,5.86021505 5.9787234,7.05376344 5.79787234,8.35483871 C5.78723404,8.43010753 5.76595745,8.49462366 5.74468085,8.56989247 C5.72340426,8.52688172 5.68085106,8.49462366 5.62765957,8.46236559 Z" id="XMLID_30_"></path>
                                                </g>
                                                <path d="M28.5317572,25.2490127 C28.168463,25.4832939 28.0646647,25.6972028 28.2099823,26.1250206 C28.4798581,26.9093531 28.5525169,27.714058 28.043905,28.4882044 C27.9089671,28.7021133 27.919347,29.0076974 27.8778276,29.272537 C27.7636494,30.0059389 27.7013704,30.7393408 27.5456729,31.4625565 C27.4314947,32.0227941 27.0474408,32.3793089 26.4454104,32.4811703 C25.6461631,32.6135901 24.836536,32.7256376 24.0476686,32.908988 C23.456018,33.0414078 22.8539876,33.2145722 22.3142362,33.4794117 C20.8714391,34.1822552 20.0514322,33.795182 20.0099128,32.2265168 C19.9580137,30.606921 20.0825717,28.9873252 21.0478963,27.5714521 C21.0997955,27.489963 21.1101753,27.347357 21.0894156,27.2454957 C20.8610593,26.379674 21.130935,25.6157137 21.6395469,24.9332425 C22.3765152,23.9451872 23.1550028,22.9876902 23.9127307,22.0098211 C23.9334904,21.9792626 23.9646299,21.9487042 23.9957694,21.9181458 C25.0129932,20.8384153 26.0821162,21.0217657 26.6737668,22.376522 C26.912503,22.9265734 27.1408594,23.486811 27.3899754,24.0470485 C27.4314947,24.1489099 27.5041536,24.230399 27.7221301,24.3220742 C27.7740293,23.8738842 27.8778276,23.4358803 27.8882075,22.9876902 C27.919347,21.561631 27.9401066,20.1457579 27.8985873,18.7196987 C27.8882075,18.2409502 27.7636494,17.7316434 27.5768124,17.2834533 C27.3276964,16.6926573 27.4522544,16.3157703 28.1373235,16 C28.2099823,16.1527921 28.3137807,16.3463287 28.4279589,16.5704237 C28.6770749,16.3463287 28.8016329,16.2342812 28.9261909,16.1222336 C29.2064465,16.2852118 29.4970819,16.44819 29.8292366,16.6315405 C29.0818885,17.8233186 29.050749,19.1271442 29.1026481,20.4411559 C29.1545473,21.7449815 28.8431523,23.0793655 29.4763222,24.525797 C29.7461979,23.9248149 29.9849341,23.4766248 30.1613913,23.0080625 C30.4208872,22.3154052 30.6492435,21.5718171 31.4900102,21.4190251 C32.3619163,21.2560469 32.8601484,21.8875874 33.3376208,22.4885695 C33.8981318,23.191413 34.4378832,23.9146287 35.0087742,24.6072861 C35.6938433,25.4425493 36.1816955,26.3287433 35.90144,27.4492184 C35.8806803,27.5408936 35.9221996,27.6733134 35.9740988,27.7548025 C36.9394234,29.3336538 37.1158806,31.0652972 36.9394234,32.8274989 C36.8356251,33.8257404 36.0467576,34.2841166 35.1852314,33.8155543 C33.9188915,33.1228969 32.5487533,33.0006633 31.1889949,32.7663821 C29.7565777,32.5117287 29.424423,32.1755862 29.2272062,30.7698992 C29.0922683,29.8124023 29.1234078,28.8650915 28.6770749,27.9279669 C28.4487185,27.4390323 28.7082144,26.7158165 28.8223926,26.1046483 C28.9054313,25.636086 28.9469506,25.636086 28.5317572,25.2490127 Z" id="XMLID_29_" fill="url(#linearGradient-5)"></path>
                                                <path d="M32.0176948,28.7922963 C31.9460684,28.7188974 31.9153713,28.5930708 31.874442,28.4882152 C31.7823509,28.2051052 31.7004921,27.9219953 31.6186333,27.6388853 L31.6288657,27.6493708 C31.1172484,27.1146075 30.5237723,26.9887808 29.8279728,27.3243186 C29.8484375,27.0412086 29.9916903,26.8944108 30.1758726,26.7685842 C30.3498224,26.6742142 30.51354,26.5798442 30.6874899,26.4854742 C30.9637632,26.4015898 31.2400365,26.3281909 31.5265422,26.2443064 C31.6595627,26.2023642 31.7311891,26.1499364 31.7311891,26.066052 C31.7516538,26.0345953 31.7516538,25.9926531 31.7516538,25.9611964 C31.7516538,25.8248842 31.6493304,25.7200287 31.5163099,25.7200287 C31.4651481,25.7200287 31.4139864,25.7409998 31.3832894,25.7619709 C31.373057,25.7619709 31.3628247,25.7619709 31.3525923,25.7619709 C31.1172484,25.8248842 30.8921368,25.9192542 30.7284192,25.9821675 C30.4316812,25.688572 30.1963373,25.3740053 29.8893669,25.1852653 C29.6233259,25.0174965 29.5619318,24.8182709 29.5823965,24.5456465 C29.5823965,24.4722476 29.6130935,24.3883632 29.5926289,24.3149643 C29.5721642,24.2205943 29.5210024,24.1367098 29.480073,24.0423398 C29.4289113,24.1157387 29.3572849,24.1891376 29.3368202,24.273022 C29.2754261,24.5037043 29.2344967,24.744872 29.1935674,24.9755542 C29.152638,24.9755542 29.1117086,24.9755542 29.0707792,24.9650687 C29.0400822,24.7239009 28.9991528,24.4827332 28.9786881,24.2415654 C28.9684558,24.1052532 28.9377587,23.9584554 28.7740412,24.0108832 C28.6921824,24.0318543 28.620556,24.1786521 28.6103237,24.273022 C28.589859,24.4932187 28.620556,24.7134154 28.6103237,24.933612 C28.6103237,24.9965254 28.5284649,25.0699242 28.4875355,25.1328376 C28.4363738,25.0804098 28.354515,25.0489531 28.323818,24.9860398 C28.2317269,24.8077854 28.1805651,24.6085598 28.088474,24.4303054 C28.057777,24.3778776 27.9247565,24.3359354 27.8633624,24.367392 C27.8122007,24.3883632 27.761039,24.5246754 27.7712713,24.5875887 C27.8019683,24.7029298 27.8735948,24.8077854 27.9452212,24.9231265 C28.088474,25.1747798 28.1089387,25.3844909 27.9349888,25.6676009 C27.5666244,26.2128498 27.5052303,26.8314975 27.7098772,27.4606308 C27.9656859,28.2365619 28.1294034,28.3099608 28.8661323,28.0373364 C29.1117086,27.9429664 29.1117086,27.880053 28.9889204,27.6283997 C28.8661323,27.3977175 28.7535765,27.1460642 28.7024148,26.8839253 C28.620556,26.5064453 28.8252029,26.1184798 29.1219409,25.9926531 C29.3777496,25.877312 29.6335582,25.9926531 29.8893669,26.3177053 C29.6335582,26.5169309 29.3572849,26.5693586 29.0605469,26.3701331 C29.0093851,26.3386764 28.8661323,26.3701331 28.8354353,26.4225609 C28.7024148,26.6008153 28.7842735,26.9363531 28.9275264,27.1041219 C29.0196175,27.2194631 29.0810116,27.3767464 29.1014763,27.5235442 C29.1321733,27.6808275 29.1117086,27.8485964 29.1117086,28.0268508 C28.8661323,28.1002497 28.6307883,28.1946197 28.385212,28.2470475 C27.9452212,28.351903 27.7201096,28.2260764 27.6177861,27.785683 C27.4847656,27.1984919 27.3619775,26.6113009 27.2494217,26.0136242 L27.4745333,26.3911042 C27.556392,26.254792 27.6382508,26.1289653 27.7508066,25.9507109 C27.556392,25.9402253 27.4438362,25.9402253 27.3210481,25.9297398 C27.3005834,25.9507109 27.2698864,25.971682 27.2494217,26.0031387 C27.2187246,25.8458553 27.1880276,25.688572 27.1573306,25.5312887 C27.1061688,25.2586642 26.9424513,25.2796353 26.7685014,25.2901209 C26.5843192,25.3006065 26.430834,25.3740053 26.4819957,25.6151731 C26.6764103,26.4959597 26.8708249,27.3767464 27.0447747,28.2680186 C27.0959365,28.5091863 27.1368659,28.7503541 27.1368659,28.9915219 C27.1164012,29.6311407 27.2391893,30.2183318 27.7303419,30.6692107 C27.8633624,30.7845518 27.9861506,30.920864 28.0782417,31.0781474 C29.0093851,32.6090384 30.574934,33.2801139 32.2837358,32.8921484 C32.6418679,32.808264 32.8874442,32.6300095 32.9181412,32.2315584 C32.9386059,31.9799051 33,31.7387373 33,31.487084 C33,30.4699852 32.7748884,29.5367707 32.0176948,28.7922963 Z M31.3525923,26.1394509 C31.34236,26.1289653 31.3321276,26.1184798 31.3218953,26.1079942 C31.3116629,26.0975087 31.3116629,26.0870231 31.3116629,26.0765375 C31.3218953,26.0975087 31.3321276,26.1184798 31.3525923,26.1394509 Z M26.0010755,26.254792 C26.0317725,26.5798442 26.2773488,26.4854742 26.5229251,26.4540175 C26.4922281,26.2862486 26.461531,26.1394509 26.430834,25.9821675 C26.2568841,26.0555664 25.9806108,25.9402253 26.0010755,26.254792 Z" id="XMLID_25_" fill="url(#linearGradient-4)"></path>
                                                <path d="M22.0955112,46.9920525 C21.7478971,46.9505055 21.4108167,46.8985717 21,46.846638 C21.0737363,46.2857535 21.1264051,45.7664161 21.221209,45.2470786 C21.3265466,44.7069677 21.5688231,44.2084037 22.1903151,44.0941495 C22.8750096,43.9695085 23.5386366,44.073376 23.9810547,44.655034 C24.2127974,44.9666364 24.4866752,45.1432112 24.8448231,45.1535979 C25.6664566,45.1639846 26.5196913,45.2782389 27.3097234,45.1224377 C29.542881,44.6861942 30.6805273,42.6711649 30.0063665,40.5211079 C29.7956913,39.856356 29.5534148,39.2227643 28.9108553,38.7969076 C28.2788296,38.3710509 28.3209646,37.6959122 28.436836,37 C28.7317813,37 29.0056591,37 29.3006045,37 C29.3006045,37.2388952 29.2795369,37.457017 29.3006045,37.6855254 C29.3427395,38.0490616 29.542881,38.1529291 29.8799614,37.9867411 C30.027434,37.9140339 30.1749067,37.8205532 30.3118456,37.7374592 C32.1236527,36.667624 34.4621479,37.3116025 35.2943151,39.233151 C36.2844887,41.5286225 36.2739549,43.8552543 34.9993697,46.0572451 C33.9775948,47.8229924 32.3237942,48.6435455 30.3223794,48.9239878 C27.9206816,49.2667505 26.0351382,48.4461973 24.6130804,46.5454223 C24.3497363,46.1922728 24.096926,45.9222173 23.5597042,46.0053113 C23.2752926,46.0468583 22.9382122,45.8598968 22.6538006,45.7248691 C22.3799228,45.5898414 22.2324502,45.6729353 22.1903151,45.9326041 C22.1587138,46.2857535 22.1376463,46.6285162 22.0955112,46.9920525 Z" id="XMLID_24_" fill="url(#linearGradient-5)"></path>
                                                <path d="M28.4922246,40.0568891 C29.0958506,40.2339063 29.1255371,40.2859702 28.7692988,40.8170219 C28.363583,41.420963 27.9182851,41.9936658 27.4828828,42.5767813 C26.9683164,43.2744374 26.2360488,43.5139313 25.4444081,43.5868207 C25.1772294,43.6180591 24.9892148,43.7325996 24.8012001,43.9512679 C23.8017538,45.0966735 22.6340839,46.0234107 21.3476678,46.7939562 C21.2289217,46.8668457 21.0903846,46.9293223 20.9518475,46.9709734 C20.6252958,47.0646884 20.3680125,46.9293223 20.2393709,46.5961135 C20.1898934,46.4607473 20.1404159,46.3045557 20.1404159,46.1587768 C20.0810428,45.0862607 19.9622967,44.0137446 20.0117743,42.9516413 C20.0909383,41.233533 21.0705936,40.1714297 22.7627255,40.0777147 C23.7522763,40.0256508 24.7418271,40.0881275 25.7214824,40.0777147 C26.3547949,40.0673019 26.9782119,40.015238 27.6115244,40.0048252 C27.9083896,39.9839997 28.2052549,40.0360636 28.4922246,40.0568891 Z" id="XMLID_23_" fill="url(#linearGradient-4)"></path>
                                                <path d="M32.8341041,3.81139367 C32.3401499,1.94512088 30.9480974,0.712459215 29.7132121,1.05806529 C29.3315202,1.16174711 29.0171858,1.40367136 28.7702087,1.73775723 C28.7702087,1.73775723 28.7702087,1.73775723 28.7702087,1.73775723 C28.7477563,1.82991885 28.6467202,1.99120169 28.5007792,1.99120169 C28.3548382,1.99120169 28.2874808,1.82991885 28.2313497,1.73775723 C28.2313497,1.73775723 28.2313497,1.73775723 28.2313497,1.73775723 C27.9843726,1.40367136 27.6700382,1.16174711 27.2883463,1.05806529 C26.053461,0.712459215 24.6614085,1.95664108 24.1674543,3.81139367 C23.6847264,5.67766647 24.2797166,7.46329785 25.514602,7.79738372 C25.5819594,7.82042412 25.6493167,7.83194433 25.7279003,7.84346453 C25.7279003,7.87802514 25.7166741,7.91258574 25.7166741,7.94714635 C25.7166741,8.77660093 26.5361889,9.44477267 27.5353234,9.44477267 C27.7710742,9.44477267 27.9843726,9.41021206 28.1864448,9.34109085 L28.1864448,11 L28.2538021,11 L28.73653,11 L28.8038874,11 L28.8038874,9.34109085 C29.0059596,9.41021206 29.2304842,9.44477267 29.4550088,9.44477267 C30.4541433,9.44477267 31.2736581,8.77660093 31.2736581,7.94714635 C31.2736581,7.91258574 31.2736581,7.87802514 31.2624318,7.84346453 C31.3297892,7.83194433 31.3971466,7.82042412 31.4757302,7.79738372 C32.7106155,7.46329785 33.316832,5.67766647 32.8341041,3.81139367 Z" id="XMLID_11_" fill="url(#linearGradient-4)" fill-rule="nonzero"></path>
                                            </g>
                                            <g id="Group-159" transform="translate(63.000000, 21.000000)">
                                                <polygon id="Rectangle-31-Copy-10" fill="#C9E4F9" points="0 19 58 19 58 21 0 21"></polygon>
                                                <polygon id="Rectangle-31-Copy-13" fill="#C9E4F9" points="0 46 58 46 58 48 0 48"></polygon>
                                                <polygon id="Rectangle-31-Copy-15" fill="#C9E4F9" points="0 73 58 73 58 75 0 75"></polygon>
                                                <polygon id="Rectangle-31-Copy-12" fill="#C9E4F9" points="0 8 32 8 32 10 0 10"></polygon>
                                                <polygon id="Rectangle-31-Copy-14" fill="#C9E4F9" points="0 35 32 35 32 37 0 37"></polygon>
                                                <polygon id="Rectangle-31-Copy-16" fill="#C9E4F9" points="0 62 32 62 32 64 0 64"></polygon>
                                                <text id="23%" font-family="PingFangSC-Regular, PingFang SC" font-size="12" font-weight="normal" letter-spacing="-0.8682353" fill="#4DA4FD">
                                                    <tspan x="35" y="13">23%</tspan>
                                                </text>
                                                <text id="23%-copy" font-family="PingFangSC-Regular, PingFang SC" font-size="12" font-weight="normal" letter-spacing="-0.8682353" fill="#4DA4FD">
                                                    <tspan x="35" y="67">23%</tspan>
                                                </text>
                                                <text id="23%-copy-2" font-family="PingFangSC-Regular, PingFang SC" font-size="12" font-weight="normal" letter-spacing="-0.8682353" fill="#4DA4FD">
                                                    <tspan x="35" y="40">23%</tspan>
                                                </text>
                                            </g>
                                        </g>
                                    </g>
                                </g>
                            </g>
                        </g>
                        <g id="Group-175" transform="translate(242.000000, 184.000000)">
                            <g id="Group-172">
                                <path d="M183.063536,84.4290309 C175.685847,105.572228 175.60138,131.593348 182.810135,162.492391 C182.817412,162.523583 183.878982,163.015462 184.461635,163.105156 C185.837319,163.31693 188.323647,163.409084 188.480915,163.563965 C188.525358,163.607735 192.056509,164.059949 195.698792,163.563965 C199.393968,163.060778 203.208843,161.605496 204.361395,161.113584 C208.070511,159.530523 213.366257,157.079575 220.248632,153.760742 C218.987708,152.807617 218.987708,150.59994 220.248632,147.13771 C222.140018,141.944366 215.423199,112.894232 215.423199,108.634444 C215.423199,106.332267 212.157814,101.897282 212.551657,93.6442982 C212.756379,89.3543467 214.573225,83.8078583 217.026383,77.4711047 C217.939132,75.1133834 219.241605,71.6865219 220.248632,68.1984012 C220.962594,65.7253925 221.954465,65.4201609 222.497482,61.2431939 C222.692767,59.7410358 223.109799,54.9888384 222.207254,51.9215507 C221.435068,49.2972892 219.441972,48.1577819 218.357246,47.7983856 C217.877667,47.6394895 217.229005,46.9748254 216.374298,47.0007373 C213.544186,47.0865369 204.665799,49.7186289 189.739136,54.8970132 L183.063536,84.4290309 Z" id="Path-38" fill="#D9EBF4"></path>
                                <path d="M181.249163,95.3859181 C183.571351,92.3571854 185.106266,90.2389281 185.85391,89.0311463 C187.022508,87.1433325 188.034331,83.4257226 188.034331,84.410053 C188.034331,84.4428413 189.87442,80.5614196 190.587331,81.0410608 C190.975953,81.3025224 184.963753,125.301776 184.963753,134.389585 C184.963753,138.828504 184.577358,153.018663 184.963753,158.668755 C185.22135,162.435483 185.22135,163.390951 184.963753,161.535156 C185.22135,161.724202 184.197823,161.724202 181.893175,161.535156 C181.232328,161.480948 180.109415,161.322244 178.524437,161.059044 C177.236949,149.694674 176.675784,150.721546 176.675784,143.596934 C176.675784,131.631595 178.200244,115.561256 181.249163,95.3859181 Z" id="Path-50" fill="#FFFFFF"></path>
                                <g id="Group-145" transform="translate(0.000000, 58.000000)">
                                    <g id="Path-13">
                                        <use fill="black" fill-opacity="1" filter="url(#filter-7)" xlink:href="#path-6"></use>
                                        <use fill="#FFFFFF" fill-rule="evenodd" xlink:href="#path-6"></use>
                                    </g>
                                    <g id="Path-21" opacity="0.9">
                                        <use fill="black" fill-opacity="1" filter="url(#filter-9)" xlink:href="#path-8"></use>
                                        <use fill="#5077F3" fill-rule="evenodd" xlink:href="#path-8"></use>
                                    </g>
                                    <path d="M258.298875,65.7690928 L154.91264,94.6856665 C36.0579095,71.1034758 -13.1777764,49.1278433 7.20558216,28.7587691 C27.5889407,8.38969494 91.035144,-1.00532791 197.544192,0.573700574 C145.084879,17.9149528 124.864792,30.0801579 136.883931,37.069316 C148.90307,44.0584741 189.374718,53.6250663 258.298875,65.7690928 Z" id="Path-20" fill="#FFFFFF"></path>
                                </g>
                                <g id="Group-154" transform="translate(166.000000, 66.000000)">
                                    <path d="M2.82530295,16.0369739 C3.47868904,15.2033619 4.11690923,15.0932307 4.73996351,15.7065806 C5.3630178,16.3199304 5.6113073,17.2638816 5.48483201,18.5384341 C5.37519226,20.4198174 5.52879922,21.541518 5.94565287,21.9035359 C6.36250651,22.2655537 5.96061006,24.2977084 4.73996351,28 L14,13.2477718 C10.6552921,6.14639603 7.81690277,1.91349169 5.48483201,0.549058829 C3.15276125,-0.815374036 2.90447175,0.363195249 4.73996351,4.08476668 C6.31123463,5.95782772 5.87065817,6.315199 3.41823413,5.15688052 C-0.260401924,3.41940281 -1.21397552,4.68376062 1.762994,6.97695657 C4.73996351,9.27015252 6.57322909,10.19309 4.16811155,10.5172417 C3.0220904,10.6716976 0.440409998,13.1871367 0.475283546,15.0006457 C0.484562509,15.4831743 1.26790231,15.828617 2.82530295,16.0369739 Z" id="Path-25" fill="#EBC7CF"></path>
                                    <path d="M9.548855,17 C8.23550613,19.0838582 7.48081403,20.5567303 7.28477869,21.4186162 C7.08874335,22.2805021 6.79190658,22.8678019 6.39426838,23.1805156 L6,26 L11,20.1037205 L9.548855,17 Z" id="Path-68" fill="#E3ACB8"></path>
                                </g>
                                <g id="Group-56" transform="translate(180.000000, 0.000000)">
                                    <g id="Group-55" transform="translate(14.706974, 39.153580)">
                                        <polygon id="Path-30" fill="#F6C2AC" points="0 5.85620198 0 9.96636591 2.8013283 9.96636591 2.8013283 2.84753312"></polygon>
                                        <polygon id="Path-31" fill="#DDAB92" points="13.2130989 0 13.6564755 6.43489681 2.10099622 11.3901325 2.10099622 0.590058563"></polygon>
                                    </g>
                                    <g id="Group-53">
                                        <g id="Group-52" transform="translate(3.501660, 19.576790)">
                                            <path d="M0,0.646882218 C0.526730879,2.50804451 0.911947716,3.43862565 1.15565051,3.43862565 C1.5212047,3.43862565 0.577825256,5.77518786 0.577825256,5.77518786 C0.577825256,5.77518786 2.51955407,23.3706623 5.88477279,26.2121124 C8.12825194,28.1064125 11.4112865,24.887122 15.7338765,16.5542408 L3.49447923,0 L0,0.646882218 Z" id="Path-28" fill="#FFD7C3"></path>
                                            <path d="M3.92498194,5.69506623 C1.52670934,7.7533173 2.05537798,12.5763149 5.51098788,20.1640591 C7.19009571,23.8510033 7.93659687,17.9425019 8.85415024,17.2025134 C9.5013334,16.6805732 10.2298201,15.8806314 11.0396103,14.8026882 L3.92498194,5.69506623 Z" id="Path-29" fill="#F3C3AC"></path>
                                        </g>
                                        <path d="M0.0810032121,10.8225786 C2.544476,4.83877326 8.43950756,1.32894769 17.7660979,0.293101902 C31.7559834,-1.26066678 38.5835372,3.04017883 39.6678893,20.9971565 C40.7522413,38.9541341 27.32864,43.9314079 8.28083858,46.9211091 C7.66897398,47.017146 9.7033881,44.2882185 9.93574926,43.0721425 C10.126164,42.0755953 10.226871,40.6919186 10.2378701,38.9211122 C8.46447057,43.2116457 7.2167191,45.3569124 6.49461563,45.3569124 C5.41146043,45.3569124 12.4537645,36.5713026 5.55850281,23.4617897 C3.99252845,20.4845045 2.36686765,18.7630412 1.44405187,16.8363934 C0.253342007,14.3504383 -0.201007545,12.3458334 0.0810032121,10.8225786 Z" id="Path-27" fill="#000304"></path>
                                    </g>
                                </g>
                                <path d="M209.482648,44 C199.720961,44.4907559 193.954677,46.6751407 192.183798,50.5531545 C191.101498,52.9232619 191.204349,52.8433485 191.000832,52.9761768 C190.914511,53.0325154 197.544303,51.0628646 210.890207,47.0672243 C210.458022,46.6513637 210.174213,46.2958716 210.038779,46.0007479 C209.903346,45.7056242 209.717969,45.0387082 209.482648,44 Z" id="Path-35" fill="#D9EBF4"></path>
                                <path d="M168,95.1171141 C169.673457,97.9298903 171.484353,99.2877238 173.432688,99.1906147 C174.814065,99.1217639 176.443793,98.7170073 178.321873,97.9763449 C184.173299,95.6687047 189.188164,87.6767019 193.366467,74.0003365 C193.752194,67.5969023 193.752194,63.5062953 193.366467,61.7285156 C192.756474,58.9171135 190.97216,57.836918 189.701273,58.0161044 C187.224924,58.3652525 179.991167,70.7322557 168,95.1171141 Z" id="Path-37" fill="#FFFFFF"></path>
                                <path d="M215,48.1376861 C223.877853,47.6589491 224.263334,59.2291535 216.156441,82.8482993 C215.618673,84.415069 221.376799,73.5767727 223.480236,62.7576368 C223.835727,60.9291531 224,57.4756438 224,55.9271734 C224,49.9459041 221,47.3494083 215,48.1376861 Z" id="Path-48" fill="#ADD2E1"></path>
                                <path d="M189,58 C190.919554,58.84421 191.642303,64.8439171 191.168247,75.9991213 C191.165624,76.0608453 192.477009,72.8848748 191.811641,62.0076507 C191.67722,59.8101958 190.740007,58.4743122 189,58 Z" id="Path-49" fill="#ADD2E1"></path>
                            </g>
                            <g id="Group-174" transform="translate(80.000000, 81.000000)">
                                <polygon id="Path-74" fill="#FDBF38" points="1 12.7181785 11.6203388 4.55778201 13.6202526 4.55778201 18.6588352 0 61 2.74760648 44.3152563 17"></polygon>
                                <polygon id="Path-75" fill="#ECAC1F" points="0.364103444 12 0 15.5083239 44 19 44 16.0252252"></polygon>
                                <polygon id="Path-76" fill="#FFFFFF" points="10 12 20.4949066 2 22 2 11.5664686 12"></polygon>
                                <polygon id="Path-76-Copy" fill="#FFFFFF" points="16 12 26.4949066 2 28 2 17.5664686 12"></polygon>
                                <polygon id="Path-76-Copy-2" fill="#FFFFFF" points="23 12 28.9368012 6.01464844 30.4418945 6.01464844 24.5664686 12"></polygon>
                            </g>
                            <g id="Group-153" transform="translate(115.000000, 94.000000)">
                                <path d="M0,5.23187528 C1.0955567,2.61405224 2.45250264,1.30514072 4.07083782,1.30514072 C5.689173,1.30514072 7.67880811,0.870093813 10.0397432,0 L17.5006529,2.61593764 L23.6661549,2.61593764 L25.5557905,1.75209153 L25.1179969,11.0579844 C24.0047769,10.7128891 23.1862159,10.572704 22.6623138,10.6374292 C22.1384116,10.7021544 20.6564663,11.1265544 18.2164778,11.910629 L12.1832237,11.910629 L8.60254614,11.910629 C6.98850088,10.7737695 6.0663161,10.4895547 5.8359918,11.0579844 C5.63119722,11.563408 4.78331687,12.2825446 4.07083782,12.2391323 C3.58137166,12.2093085 3.3076074,11.6685118 2.74059293,11.0579844 C1.34821817,9.55875836 0.95280593,7.38482135 1.45650166,6.68141549 C1.79229881,6.21247825 1.30679826,5.72929818 0,5.23187528 Z" id="Path-24" fill="#EBC7CF"></path>
                                <path d="M3.06178217,11.1290751 L5.42948494,9.38086528 C6.94560168,9.66870308 7.9600937,9.96007138 8.47296098,10.2549702 C8.98582826,10.549869 12.4825565,10.549869 18.9631457,10.2549702 L23.8665238,8.88977392 L23.8665238,10.7472261 L21.0093264,10.9445277 L18.8180281,11.6951389 L8.33039512,11.6951389 L7.10055654,10.9445277 C6.39567837,11.1967277 5.83865451,11.4469314 5.42948494,11.6951389 C5.02031536,11.9433463 4.23108111,11.7546584 3.06178217,11.1290751 Z" id="Path-67" fill="#E3ACB8"></path>
                            </g>
                            <path d="M137,98.5446377 L139.353217,95.7468154 L155.621772,94.8227431 C160.399188,93.9859723 162.787896,93.5675869 162.787896,93.5675869 C162.787896,93.5675869 164.632686,92.2365322 168.322266,89.5744228 C170.355869,87.5571527 169.174585,86.6803305 170.233926,86.0587978 C171.625721,85.2422094 170.870502,85.7384651 174.920898,77.0656337 C176.207487,74.3107509 178.956511,71.7016142 180.635742,69.0324306 C182.67231,65.7952513 182.047042,64.7123445 184.833984,62.4894619 C187.031814,60.7364591 189.059121,64.0853778 189.059121,66.3383075 C189.059121,68.4715783 189.667317,70.4504195 190.883708,72.2748309 C186.174463,86.261556 182.290701,94.639076 179.232422,97.4073908 C176.174142,100.175706 172.537424,102.982034 168.322266,105.826376 L153.793945,105.826376 L141.191406,105.826376 L137,104.240438 L137,98.5446377 Z" id="Path-26-Copy" fill="#D9EBF4"></path>
                            <path d="M211.539191,48.1884728 C214.780919,47.782883 217.020686,48.0319092 218.258493,48.9355513 C218.984958,49.465896 215.367537,49.5336683 210.834636,50.4200239 C203.782279,51.7990295 193.892934,54.4972389 189.910838,58.8959056 C183.36925,66.1218145 171.864293,93.9306641 170.765172,94.8212891 C169.666051,95.7119141 165.860532,94.019343 167.334959,89.53203 C167.981122,87.5654776 172.500271,83.8801144 175.021157,77.8251953 C178.252471,70.0638966 182.160839,60.6613714 184.719012,59.683105 C185.849416,59.2508293 185.641479,58.1238951 187.344268,56.8611545 C188.531667,55.980612 191.090579,55.144437 193.816451,53.9665713 C196.392213,52.8535691 202.299793,50.9275363 211.539191,48.1884728 Z" id="Path-36" fill="#FFFFFF"></path>
                        </g>
                    </g>
                </g>
                <g id="Group-2" transform="translate(192.000000, 88.000000)">
                    <g id="医生">
                        <path d="M115.1,97.2 C115.1,97.2 118.1,95.8 120.6,94 C123.1,92.2 125.1,91.4 127.5,91.5 C129.9,91.6 132.5,90 132.5,90 C132.5,90 134.6,88.5 135,90 C135.4,91.5 133.4,93.9 129.5,94.9 C127.9,95.8 129.1,96.9 131,96.8 C132.9,96.8 142,96.8 142,96.8 C142,96.8 146.4,95.9 146.4,97.3 C146.4,98.7 142.5,99.5 140.3,99.9 C138.1,100.3 139.3,101.4 142.1,101.1 C144.9,100.8 149,100.2 149,102.2 C149,104.2 141.6,104.7 141.6,104.7 C141.6,104.7 135.7,107.8 126.5,107.8 C117.3,107.8 114.1,107.8 114.1,107.8 L115.1,97.2 Z" id="Shape" fill="#EF8F7A" fill-rule="nonzero"></path>
                        <path d="M144.8,104.2 C144.8,101.6 135.9,103 132.4,103.3 C128.9,103.6 125,101.9 122.3,100.9 C120.1,100.1 116.3,100.9 114.7,101.3 L114.1,106.4 C114.1,106.8 114.2,107.3 114.3,107.7 C115.3,107.7 118.8,107.7 126.4,107.7 C135.6,107.7 141.5,104.6 141.5,104.6 C141.5,104.6 143,104.6 144.8,104.2 C144.7,104.3 144.8,104.3 144.8,104.2 Z" id="Shape" fill="#F3A185" fill-rule="nonzero"></path>
                        <path d="M112.2,97.3 C112.2,97.3 115.3,96.5 115.3,97.3 C115.3,98.1 116.2,110.8 112.8,111.5 C112.8,111.6 110.6,103.9 112.2,97.3 Z" id="Shape" fill="#2982C5" fill-rule="nonzero"></path>
                        <path d="M22,47.2 C22,47.2 0.2,66.7 0.5,75.7 C0.8,84.7 2.3,125.9 2.3,125.9 L15.3,125.9 L69.8,125.9 C69.8,125.9 71.8,113.5 69.8,109 C80.8,112.2 96.8,114.2 112.6,112.5 L112.6,95.5 L91.1,94.7 C91.1,94.7 80.9,91.9 75.9,81.2 C70.9,70.5 66.9,56.3 55.7,52.9 C44.2,49.5 22,47.2 22,47.2 Z" id="Shape" fill="#FFFFFF" fill-rule="nonzero"></path>
                        <path d="M69.7,125.9 C70,123.1 70.2,120.2 70.3,117.4 C70.3,116 70.3,114.6 70.2,113.2 C70.1,111.8 69.9,110.4 69.3,109.2 C69.2,108.9 69.3,108.6 69.6,108.5 C69.7,108.4 69.8,108.4 70,108.5 C76.9,110.3 84,111.3 91.1,111.8 C98.2,112.3 105.4,112.1 112.4,111.3 L111.3,112.6 L111.1,95.6 L112.6,97.1 L91.1,96.5 C91,96.5 90.9,96.5 90.8,96.4 C88.7,95.8 87,94.9 85.2,93.9 C83.5,92.9 81.9,91.7 80.4,90.3 C78.9,88.9 77.6,87.4 76.5,85.7 C75.4,84 74.4,82.2 73.7,80.4 C72.1,76.9 70.7,73.4 69.1,70 C67.5,66.6 65.8,63.4 63.5,60.6 C61.3,57.8 58.5,55.7 55.3,54.6 C51.8,53.5 48.1,52.8 44.4,52 C37,50.6 29.5,49.6 22,48.8 L23.2,48.4 C18,53.2 12.8,58.3 8.3,63.7 C6.1,66.4 3.9,69.3 2.6,72.4 C2.3,73.2 2,74 1.9,74.7 C1.9,74.9 1.8,75.1 1.8,75.3 C1.8,75.5 1.8,75.6 1.8,75.9 L1.8,77.3 L1.9,82.7 C2.1,89.9 2.1,97.1 2.2,104.3 C2.3,111.5 2.4,118.7 2.4,125.9 C2.4,126 2.4,126 2.3,126 C2.2,126 2.2,126 2.2,125.9 L0.7,82.7 L0.5,77.3 C0.5,76.4 0.4,75.5 0.5,74.6 C0.6,73.7 0.9,72.8 1.2,72 C2.6,68.6 4.8,65.7 7,62.9 C11.5,57.3 16.6,52.1 21.9,47.2 C21.9,47.2 22,47.2 22,47.2 C29.5,48 37.1,49 44.5,50.4 C48.2,51.1 51.9,51.9 55.6,52.9 C59.3,54.1 62.5,56.5 64.8,59.5 C67.2,62.5 69,65.8 70.6,69.3 C72.2,72.7 73.6,76.3 75.1,79.7 C75.9,81.4 76.7,83.1 77.7,84.7 C78.8,86.2 79.9,87.7 81.3,89 C84,91.6 87.3,93.6 90.9,94.7 L112.4,95.5 C112.5,95.5 112.6,95.6 112.6,95.7 L112.6,112.7 C112.6,112.8 112.5,112.8 112.5,112.8 C105.3,113.6 98.1,113.6 90.9,113 C83.7,112.4 76.6,111.2 69.7,109.2 L69.8,109 C70.4,110.3 70.5,111.8 70.6,113.2 C70.7,114.6 70.7,116.1 70.6,117.5 C70.5,120.4 70.2,123.2 69.8,126 C69.8,126.1 69.7,126.1 69.7,126.1 C69.7,126 69.6,126 69.7,125.9 Z" id="Shape" fill="#D7ECFD" fill-rule="nonzero"></path>
                        <polygon id="Shape" fill="#C1E7FE" fill-rule="nonzero" points="6.7 92 21.5 125.9 35.2 125.9 37.8 114.5"></polygon>
                        <path d="M22.6,47.2 C22.6,47.2 19.7,53.2 23.2,59.7 C26.7,66.2 43.7,98.1 37.7,125.9 L63,125.9 C63,125.9 65.2,80 44.5,50.7 L43,49.1 L42.7,51.1 C42.2,51.9 42.3,54.6 41.1,54.8 C37.7,55.5 25.6,55.5 22.6,47.2 Z" id="Shape" fill="#3FACFB" fill-rule="nonzero"></path>
                        <path d="M37.4,55 C37,55.3 35.2,60.6 35.2,60.6 L38.8,63.9 C38.8,63.9 42.1,73.3 42.2,86 C42.3,98.7 44.1,118.6 44.1,118.6 L50,124.9 L54.4,124.9 C54.4,124.9 58.3,119.9 57.8,112.2 C57.3,104.5 53.5,73 43.4,63.2 C46.1,59.5 46.1,59.5 46.1,59.5 L41.9,53.8 C42,53.9 42.2,55 37.4,55 Z" id="Shape" fill="#0D4B8B" fill-rule="nonzero"></path>
                        <g id="Group" transform="translate(11.000000, 0.000000)">
                            <path d="M11.6,39.5 L11.6,48.2 C11.6,48.2 15.4,56.5 30.2,54.8 C32.5,54.2 32.3,47.2 32.3,47.2 C32.3,47.2 38.4,48.1 39.3,47.2 C40.2,46.3 42.4,44.2 41.4,34.1 C44.9,32.7 45.2,30.8 42.6,24.9 C40,19 41.9,13.8 34.2,6.3 L16.6,7.9 L7.2,26 L11.6,39.5 Z" id="Shape" fill="#F19C8C" fill-rule="nonzero"></path>
                            <path d="M11.1,39.7 C11.1,39.7 -1.11022302e-16,31.9 1,18.3 C2,4.7 14.6,0.9 17,0.7 C19.4,0.5 36,-1.4 35.1,7 C34.1,8 25.5,10 19.6,9.8 C21,12.9 26.2,20.8 19.9,25.5 C17.1,27.1 19.4,31.9 19.4,31.9 C19.4,31.9 20.1,34 18,33.8 C17,32.2 15.4,29.1 15.4,29.1 C15.4,29.1 14.2,27.5 11.4,28.8 C8.6,30 11.2,34.5 12.3,36.1 C13.4,37.6 11.1,39.7 11.1,39.7 Z" id="Shape" fill="#030005" fill-rule="nonzero"></path>
                            <ellipse id="Oval" stroke="#030005" stroke-width="0.903399246" transform="translate(36.403060, 21.107050) rotate(-19.317356) translate(-36.403060, -21.107050) " cx="36.40306" cy="21.10705" rx="3.49999708" ry="4.69999608"></ellipse>
                            <ellipse id="Oval" stroke="#030005" stroke-width="0.903399246" transform="translate(43.279290, 19.123530) rotate(-19.317356) translate(-43.279290, -19.123530) " cx="43.27929" cy="19.12353" rx="2.19999816" ry="4.49999624"></ellipse>
                            <path d="M32.8,21.1 L15.6,26.3" id="Shape" stroke="#030005" stroke-width="0.9034"></path>
                            <path d="M45.4,18.4 L39.7,19.9" id="Shape" stroke="#030005" stroke-width="0.9034"></path>
                        </g>
                        <path d="M66.9,75.1 L68.5,73.6 C68.5,73.6 69,73.2 70.4,74.4 C71.8,75.6 79.8,81.4 79.8,81.4 C79.8,81.4 80.8,82.8 79.8,84 C78.8,85.2 77.9,85.5 77.9,85.5 C77.9,85.5 66.6,78 66.9,75.1 Z" id="Shape" fill="#2982C5" fill-rule="nonzero"></path>
                        <path d="M69.2,73.6 L77.8,63.9 C77.8,63.9 81.2,59.8 83.4,58 C85.6,56.2 91.2,51.9 91.2,51.9 C91.2,51.9 92.3,50.8 93.2,51.9 C94.1,53 90.7,56.4 90.7,56.4 L85.8,60.9 C85.8,60.9 86.7,62.5 89.3,61.1 C91.9,59.7 94.2,57.1 96.7,55.7 C99.2,54.3 99.2,56.3 99.2,56.3 C99.2,56.3 100.6,56.1 100.8,57.1 C101,58.1 100.9,59 99.6,59.6 C98.3,60.2 94.1,63.7 94.1,63.7 C94.1,63.7 94,65.1 95.9,64.2 C97.8,63.3 99.9,62.4 99.9,62.4 C99.9,62.4 101.7,61.5 102.4,62.4 C103.1,63.3 102.4,64.1 100.6,64.8 C98.8,65.5 93.2,67.6 93.2,67.6 C93.2,67.6 92.3,69 93.7,69 C95.1,69 98.1,68.7 98.1,68.7 C98.1,68.7 100.8,67.9 101.1,69 C101.4,70.1 100.5,70.7 98.6,71.1 C96.7,71.5 91.6,71.6 91.6,71.6 C91.6,71.6 90.3,72.2 88.5,74.4 C86.7,76.6 81.6,79.3 77.4,80.2 C77.5,80.1 67.6,76.4 69.2,73.6 Z" id="Shape" fill="#F2A185" fill-rule="nonzero"></path>
                        <path d="M87.5,64.9 C89.9,67.2 91.6,69.1 85.3,72.9 C81.1,75.4 76.7,77.5 74.2,78.6 C76,79.5 77.5,80 77.5,80 C81.6,79.1 86.7,76.4 88.6,74.2 C90.5,72 91.7,71.4 91.7,71.4 C91.7,71.4 96.8,71.3 98.7,70.9 C100.6,70.5 101.5,69.9 101.2,68.8 C100.9,67.7 98.2,68.5 98.2,68.5 C98.2,68.5 95.1,68.8 93.8,68.8 C92.5,68.8 93.3,67.4 93.3,67.4 C93.3,67.4 98.9,65.4 100.7,64.6 C102.5,63.8 103.2,63.1 102.5,62.2 C101.7,61.3 100,62.2 100,62.2 C100,62.2 97.9,63.1 96,64 C94.1,64.9 94.2,63.5 94.2,63.5 C94.2,63.5 98.3,60 99.7,59.4 C101.1,58.8 101.2,57.9 100.9,56.9 C100.6,55.9 99.3,56.1 99.3,56.1 C99.3,56.1 99.3,54.1 96.8,55.5 C94.3,56.9 92,59.5 89.4,60.9 C87.4,61.9 86.4,61.3 86.1,60.9 C86,61 86,61 85.9,61.1 C85.9,61.2 85.1,62.6 87.5,64.9 Z" id="Shape" fill="#F08F7A" fill-rule="nonzero"></path>
                        <path d="M62.1,104.3 C62.1,104.3 66.2,125.1 66.8,126 L62.1,126 L62.1,104.3 Z" id="Shape" fill="#C1E7FE" fill-rule="nonzero"></path>
                        <path d="M77.8,88.5 C77.8,88.5 78.2,92.5 71.8,98.6 C65.4,104.7 64.5,111.4 64.5,111.4 L62.1,104.3 L77.8,88.5 Z" id="Shape" fill="#C1E7FE" fill-rule="nonzero"></path>
                        <g id="Group" transform="translate(4.000000, 68.000000)" fill-rule="nonzero">
                            <path d="M0,21 C0,21 11.5,34.5 21.2,40.5 C30.9,46.5 42.6,50.5 50.4,42.7 C58.2,34.9 75,18.5 75,18.5 L61.2,7 L44.2,22.8 C44.2,22.8 35.2,26.2 29.7,18.6 C24.2,11 21.7,6.8 6.2,1" id="Shape" fill="#FFFFFF"></path>
                            <path d="M0,21 C5.4,26.8 11,32.4 17.3,37.1 C20.4,39.5 23.9,41.4 27.4,43.1 C29.2,43.9 31,44.6 32.9,45.2 C34.8,45.7 36.7,46.1 38.6,46.2 C42.4,46.4 46.2,45.4 49,42.9 C49.7,42.3 50.4,41.6 51.1,40.9 L53.2,38.8 L57.4,34.6 C63.1,29 68.7,23.4 74.3,17.9 L74.4,19.4 L60.6,7.7 L61.8,7.7 C56.1,12.9 50.5,18.2 44.7,23.3 L44.6,23.4 L44.5,23.4 C42.5,24 40.5,24.3 38.5,24.1 C36.5,23.9 34.5,23.3 32.8,22.2 L31.6,21.3 L30.5,20.2 C29.8,19.4 29.2,18.6 28.7,17.8 C27.6,16.2 26.5,14.7 25.3,13.2 C23,10.2 20,7.7 16.7,5.8 C13.4,3.9 9.9,2.3 6.3,0.8 C9.9,2 13.6,3.4 17,5.3 C18.7,6.2 20.4,7.2 21.9,8.5 C23.4,9.7 24.8,11.1 26.1,12.6 C27.4,14.1 28.5,15.7 29.7,17.2 C30.3,18 30.9,18.7 31.5,19.4 L32.5,20.3 L33.6,21.1 C36.7,23 40.8,23 44.1,21.9 L43.9,22.1 C49.5,16.8 55.2,11.5 60.8,6.2 L61.4,5.7 L62,6.2 L75.9,17.7 L76.7,18.4 L75.9,19.2 C70.3,24.8 64.5,30.3 58.9,35.8 L54.6,39.9 L52.5,42 C51.8,42.7 51.1,43.4 50.3,44.1 C48.7,45.4 46.8,46.5 44.8,47.1 C42.8,47.7 40.7,47.8 38.6,47.7 C36.5,47.5 34.6,47.1 32.6,46.5 C30.7,45.9 28.8,45.1 27,44.2 C25.2,43.3 23.4,42.4 21.7,41.3 C20.8,40.8 20,40.2 19.2,39.7 C18.4,39.1 17.6,38.5 16.8,37.9 C13.7,35.4 10.8,32.7 8,29.8 C5.2,27 2.5,24.1 0,21 Z" id="Shape" fill="#DCEFFE"></path>
                        </g>
                    </g>
                </g>
            </g>
        </g>
    </g>
</svg>