<?xml version="1.0" encoding="UTF-8"?>
<svg width="70px" height="54px" viewBox="0 0 70 54" version="1.1" xmlns="http://www.w3.org/2000/svg" xmlns:xlink="http://www.w3.org/1999/xlink">
    <!-- Generator: Sketch 52.4 (67378) - http://www.bohemiancoding.com/sketch -->
    <title>分组 13</title>
    <desc>Created with Sketch.</desc>
    <g id="Page-1" stroke="none" stroke-width="1" fill="none" fill-rule="evenodd">
        <g id="分组-13">
            <path d="M3.67134151,0 C1.64329246,0 0,1.64872568 0,3.68183492 L0,50.3181651 C0,52.3520107 1.64329246,54 3.67134151,54 L66.3286585,54 C68.3559733,54 70,52.3520107 70,50.3181651 L70,3.68183492 C70,1.64872568 68.3559733,0 66.3286585,0 L3.67134151,0 Z" id="Fill1" fill="#E1EFFF"></path>
            <g id="分组-6" transform="translate(15.000000, 10.000000)">
                <g id="分组-5">
                    <path d="M37.2234407,13.0048261 C37.1871145,13.0013789 37.1507882,13 37.1137766,13 L34,13 L34,35 L40,35 L40,16.2844876 C40,14.0644939 38.3392735,13.1068631 37.2234407,13.0048261" id="Fill-7" fill="#6CC0FC"></path>
                    <path d="M2.77655929,13.0048261 C1.66072653,13.1068631 0,14.0644939 0,16.2844876 L0,35 L6,35 L6,13 L2.88622344,13 C2.84989719,13 2.81288554,13.0013789 2.77655929,13.0048261" id="Fill-4" fill="#6CC0FC"></path>
                    <path d="M28.4181578,19.6587884 C28.4181578,20.1081099 28.0273862,20.4762678 27.5489327,20.4762678 L26.0762902,20.4762678 C25.5985271,20.4762678 25.2077556,20.1081099 25.2077556,19.6587884 L25.2077556,18.2738134 C25.2077556,17.8244919 25.5985271,17.456334 26.0762902,17.456334 L27.5489327,17.456334 C28.0273862,17.456334 28.4181578,17.8244919 28.4181578,18.2738134 L28.4181578,19.6587884 Z M28.4181578,25.1246672 C28.4181578,25.5739887 28.0273862,25.9427959 27.5489327,25.9427959 L26.0762902,25.9427959 C25.5985271,25.9427959 25.2077556,25.5739887 25.2077556,25.1246672 L25.2077556,23.7403415 C25.2077556,23.2903708 25.5985271,22.9222128 26.0762902,22.9222128 L27.5489327,22.9222128 C28.0273862,22.9222128 28.4181578,23.2903708 28.4181578,23.7403415 L28.4181578,25.1246672 Z M21.6058915,19.6587884 C21.6058915,20.1081099 21.2144295,20.4762678 20.7359761,20.4762678 L19.2640239,20.4762678 C18.7862609,20.4762678 18.3941085,20.1081099 18.3941085,19.6587884 L18.3941085,18.2738134 C18.3941085,17.8244919 18.7862609,17.456334 19.2640239,17.456334 L20.7359761,17.456334 C21.2144295,17.456334 21.6058915,17.8244919 21.6058915,18.2738134 L21.6058915,19.6587884 Z M21.6058915,25.1246672 C21.6058915,25.5739887 21.2144295,25.9427959 20.7359761,25.9427959 L19.2640239,25.9427959 C18.7862609,25.9427959 18.3941085,25.5739887 18.3941085,25.1246672 L18.3941085,23.7403415 C18.3941085,23.2903708 18.7862609,22.9222128 19.2640239,22.9222128 L20.7359761,22.9222128 C21.2144295,22.9222128 21.6058915,23.2903708 21.6058915,23.7403415 L21.6058915,25.1246672 Z M21.6058915,30.5911954 C21.6058915,31.0405168 21.2144295,31.4086748 20.7359761,31.4086748 L19.2640239,31.4086748 C18.7862609,31.4086748 18.3941085,31.0405168 18.3941085,30.5911954 L18.3941085,29.2062204 C18.3941085,28.7568989 18.7862609,28.388741 19.2640239,28.388741 L20.7359761,28.388741 C21.2144295,28.388741 21.6058915,28.7568989 21.6058915,29.2062204 L21.6058915,30.5911954 Z M14.7936252,19.6587884 C14.7936252,20.1081099 14.4014729,20.4762678 13.9237098,20.4762678 L12.4517577,20.4762678 C11.9733042,20.4762678 11.5818422,20.1081099 11.5818422,19.6587884 L11.5818422,18.2738134 C11.5818422,17.8244919 11.9733042,17.456334 12.4517577,17.456334 L13.9237098,17.456334 C14.4014729,17.456334 14.7936252,17.8244919 14.7936252,18.2738134 L14.7936252,19.6587884 Z M14.7936252,25.1246672 C14.7936252,25.5739887 14.4014729,25.9427959 13.9237098,25.9427959 L12.4517577,25.9427959 C11.9733042,25.9427959 11.5818422,25.5739887 11.5818422,25.1246672 L11.5818422,23.7403415 C11.5818422,23.2903708 11.9733042,22.9222128 12.4517577,22.9222128 L13.9237098,22.9222128 C14.4014729,22.9222128 14.7936252,23.2903708 14.7936252,23.7403415 L14.7936252,25.1246672 Z M14.7936252,30.5911954 C14.7936252,31.0405168 14.4014729,31.4086748 13.9237098,31.4086748 L12.4517577,31.4086748 C11.9733042,31.4086748 11.5818422,31.0405168 11.5818422,30.5911954 L11.5818422,29.2062204 C11.5818422,28.7568989 11.9733042,28.388741 12.4517577,28.388741 L13.9237098,28.388741 C14.4014729,28.388741 14.7936252,28.7568989 14.7936252,29.2062204 L14.7936252,30.5911954 Z M29.83971,5.07077463 L29.399229,5 L27.892066,5 C28.1337092,5.7272255 28.2641965,6.4999026 28.2641965,7.30179858 C28.2641965,11.5619116 24.5787929,15.0285696 20.0497095,15.0285696 C15.5185547,15.0285696 11.8338416,11.5619116 11.8338416,7.30179858 C11.8338416,6.4999026 11.9650193,5.7272255 12.2073529,5 L10.600771,5 L10.2790403,5.04350367 C9.42707554,5.2220635 8,5.98110512 8,7.80566197 L8,33.8487761 C8,34.4844491 8.54887521,35 9.22409528,35 L25.2077556,35 L25.2077556,29.2062204 C25.2077556,28.7568989 25.5985271,28.388741 26.0762902,28.388741 L27.5489327,28.388741 C28.0273862,28.388741 28.4181578,28.7568989 28.4181578,29.2062204 L28.4181578,35 L30.7765951,35 C31.4518152,35 32,34.4844491 32,33.8487761 L32,7.80566197 C32,6.0635673 30.6992693,5.29283813 29.83971,5.07077463 Z" id="Fill-9" fill="#238AFF"></path>
                    <path d="M23.7499201,6.42788615 C23.7499201,6.945315 23.3271506,7.36808443 22.8097218,7.36808443 L21.3674448,7.36808443 L21.3674448,8.81036137 C21.3674448,9.32651103 20.9446754,9.74992005 20.4278862,9.74992005 L19.5714743,9.74992005 C19.054685,9.74992005 18.631276,9.32651103 18.631276,8.81036137 L18.631276,7.36808443 L17.188999,7.36808443 C16.6728494,7.36808443 16.2494404,6.945315 16.2494404,6.42788615 L16.2494404,5.57147426 C16.2494404,5.054685 16.6728494,4.63127598 17.188999,4.63127598 L18.631276,4.63127598 L18.631276,3.19027822 C18.631276,2.67284938 19.054685,2.25007995 19.5714743,2.25007995 L20.4278862,2.25007995 C20.9446754,2.25007995 21.3674448,2.67284938 21.3674448,3.19027822 L21.3674448,4.63127598 L22.8097218,4.63127598 C23.3271506,4.63127598 23.7499201,5.054685 23.7499201,5.57147426 L23.7499201,6.42788615 Z M19.9993604,0 C16.6907579,0 14,2.69139751 14,5.99936041 C14,9.3079629 16.6907579,12 19.9993604,12 C23.3079629,12 26,9.3079629 26,5.99936041 C26,2.69139751 23.3079629,0 19.9993604,0 Z" id="Fill-1" fill="#0C4C8E"></path>
                </g>
            </g>
        </g>
    </g>
</svg>