<?xml version="1.0" encoding="UTF-8"?>
<svg width="70px" height="54px" viewBox="0 0 70 54" version="1.1" xmlns="http://www.w3.org/2000/svg" xmlns:xlink="http://www.w3.org/1999/xlink">
    <!-- Generator: Sketch 52.4 (67378) - http://www.bohemiancoding.com/sketch -->
    <title>分组 21</title>
    <desc>Created with Sketch.</desc>
    <g id="Page-1" stroke="none" stroke-width="1" fill="none" fill-rule="evenodd">
        <g id="分组-21">
            <g id="分组-20">
                <g id="Group3" fill="#E1EFFF">
                    <path d="M3.67134151,0 C1.64329246,0 0,1.64872568 0,3.68183492 L0,50.3181651 C0,52.3520107 1.64329246,54 3.67134151,54 L66.3286585,54 C68.3559733,54 70,52.3520107 70,50.3181651 L70,3.68183492 C70,1.64872568 68.3559733,0 66.3286585,0 L3.67134151,0 Z" id="Fill1"></path>
                </g>
                <g id="分组-15" transform="translate(13.000000, 9.000000)">
                    <polygon id="Fill4" fill="#238AFF" points="19 34.541575 25.061625 34.541575 25.061625 29 19 29"></polygon>
                    <path d="M35,37 L9,37 C9,34.7966616 10.7197285,33 12.8287199,33 L31.1712801,33 C33.3035111,33 35,34.7966616 35,37" id="Fill7" fill="#238AFF"></path>
                    <g id="分组-13">
                        <path d="M37.1710737,30 L5.87380036,30 C2.62397893,30 0,29.5444155 0,26 L43.0222222,26 C43.0448741,29.5195508 40.3980971,30 37.1710737,30" id="Fill9" fill="#238AFF"></path>
                        <path d="M3.10673975,23.1907179 L40.8684664,23.1907179 L40.8684664,2.83416969 L3.10673975,2.83416969 L3.10673975,23.1907179 Z M0,1.85751994 L0,26 L44,26 L44,1.85751994 C44,0.833357505 43.169783,0 42.14948,0 L1.82647747,0 C0.806925875,0.02413343 0,0.833357505 0,1.85751994 Z" id="Fill12" fill="#0C4C8E"></path>
                        <g id="Group22" transform="translate(2.270833, 1.672560)">
                            <polygon id="Fill15" fill="#6CC0FC" points="0.729166667 21.32744 38.7291667 21.32744 38.7291667 0.32744 0.729166667 0.32744"></polygon>
                            <path d="M20.0461293,17.3268025 L5.4114485,17.3268025 C5.03441789,17.3268025 4.72916667,17.028115 4.72916667,16.6601025 L4.72916667,15.99414 C4.72916667,15.62539 5.03441789,15.32744 5.4114485,15.32744 L20.0461293,15.32744 C20.4231599,15.32744 20.7291667,15.62539 20.7291667,15.99414 L20.7291667,16.6601025 C20.7291667,17.028115 20.4231599,17.3268025 20.0461293,17.3268025" id="Fill19" fill="#CFECFE"></path>
                            <path d="M14.1039938,6.3268025 L5.35433956,6.3268025 C5.00924965,6.3268025 4.72916667,6.028115 4.72916667,5.6601025 L4.72916667,4.99414 C4.72916667,4.62539 5.00924965,4.32744 5.35433956,4.32744 L14.1039938,4.32744 C14.4490837,4.32744 14.7291667,4.62539 14.7291667,4.99414 L14.7291667,5.6601025 C14.7291667,6.028115 14.4490837,6.3268025 14.1039938,6.3268025" id="Fill18" fill="#CFECFE"></path>
                            <path d="M26.6998458,8.98522936 C26.6998458,11.027839 25.0393411,12.6836662 22.9909614,12.6836662 C20.9425817,12.6836662 19.2811686,11.027839 19.2811686,8.98522936 C19.2811686,6.94261973 20.9425817,5.2867925 22.9909614,5.2867925 C25.0393411,5.2867925 26.6998458,6.94261973 26.6998458,8.98522936" id="Fill20" fill="#238AFF"></path>
                            <path d="M24.7479353,8.3280616 L23.6497131,8.3280616 L23.6497131,7.23293298 C23.6497131,7.11155396 23.5516088,7.0137261 23.4298869,7.0137261 L22.5514909,7.0137261 C22.429769,7.0137261 22.3316647,7.11155396 22.3316647,7.23293298 L22.3316647,8.3280616 L21.2334425,8.3280616 C21.1117206,8.3280616 21.0136164,8.42588947 21.0136164,8.54726849 L21.0136164,9.42319023 C21.0136164,9.54456925 21.1117206,9.64239711 21.2334425,9.64239711 L22.3316647,9.64239711 L22.3316647,10.7375257 C22.3316647,10.8589048 22.429769,10.9567326 22.5514909,10.9567326 L23.4298869,10.9567326 C23.5516088,10.9567326 23.6497131,10.8589048 23.6497131,10.7375257 L23.6497131,9.64239711 L24.7479353,9.64239711 C24.8696572,9.64239711 24.9677614,9.54456925 24.9677614,9.42319023 L24.9677614,8.54726849 C24.9677614,8.42588947 24.8696572,8.3280616 24.7479353,8.3280616" id="Fill21" fill="#FFFFFF"></path>
                        </g>
                        <path d="M16.3748271,13.9993625 L7.62517289,13.9993625 C7.28008299,13.9993625 7,13.700675 7,13.3326625 L7,12.6667 C7,12.29795 7.28008299,12 7.62517289,12 L16.3748271,12 C16.719917,12 17,12.29795 17,12.6667 L17,13.3326625 C17,13.700675 16.719917,13.9993625 16.3748271,13.9993625" id="Fill17" fill="#CFECFE"></path>
                    </g>
                </g>
            </g>
        </g>
    </g>
</svg>