<?xml version="1.0" encoding="UTF-8"?>
<svg width="70px" height="54px" viewBox="0 0 70 54" version="1.1" xmlns="http://www.w3.org/2000/svg" xmlns:xlink="http://www.w3.org/1999/xlink">
    <!-- Generator: Sketch 52.4 (67378) - http://www.bohemiancoding.com/sketch -->
    <title>分组 18 copy</title>
    <desc>Created with Sketch.</desc>
    <g id="Page-1" stroke="none" stroke-width="1" fill="none" fill-rule="evenodd">
        <g id="分组-18-copy">
            <path d="M3.67134151,0.5 C1.92002389,0.5 0.5,1.92427934 0.5,3.68183492 L0.5,50.3181651 C0.5,52.0761873 1.9197548,53.5 3.67134151,53.5 L66.3286585,53.5 C68.0797801,53.5 69.5,52.0759175 69.5,50.3181651 L69.5,3.68183492 C69.5,1.9245491 68.0795109,0.5 66.3286585,0.5 L3.67134151,0.5 Z" id="Fill1" stroke="#6CC0FC" fill="#FFFFFF"></path>
            <g id="分组-14" transform="translate(19.000000, 9.000000)">
                <path d="M30.3998903,36 L1.6001097,36 C0.715954019,36 0,35.2534597 0,34.3332346 L0,1.66676542 C0,0.746540268 0.715954019,0 1.6001097,0 L30.3998903,0 C31.2833147,0 32,0.746540268 32,1.66676542 L32,34.3332346 C32,35.2534597 31.2833147,36 30.3998903,36" id="Fill1" fill="#238AFF"></path>
                <path d="M27.4002706,32 L4.59972936,32 C4.26847091,32 4,31.7013821 4,31.3334422 L4,4.66655784 C4,4.29861791 4.26847091,4 4.59972936,4 L27.4002706,4 C27.7315291,4 28,4.29861791 28,4.66655784 L28,31.3334422 C28,31.7013821 27.7315291,32 27.4002706,32" id="Fill4" fill="#6CC0FC"></path>
                <g id="Group" transform="translate(6.000000, 8.000000)">
                    <path d="M6.51922238,9.28712425 C5.31963737,8.00207784 4,6.00288153 4,4.00045085 C4,1.57308216 5.43944272,0 7.36082406,0 C8.44055432,0 9.28027864,0.57107293 10.0000988,1.5707887 C10.7197214,0.57107293 11.5593963,0 12.6391759,0 C14.5583835,0 16,1.5707887 16,4.00045085 C16,5.99964716 14.5605079,8.14380225 13.4807776,9.28712425 C12.7611551,10.1437042 11.5615207,11.0005195 9.99970357,12 C8.43842993,11.0014604 7.23810386,10.1444099 6.51803667,9.28712425 L6.51922238,9.28712425 Z" id="Path" fill="#CFECFE"></path>
                    <g id="分组-12" transform="translate(0.000000, 8.000000)" fill="#0C4C8E">
                        <path d="M14.3178154,8.53478724 L14.3178154,12 L12,12 L12,6.53441218 C14.8972932,6.00118008 17.2181155,3.33573314 17.6821368,0 L20,0 C19.6519124,3.86720883 17.3329515,7.20118557 14.3178154,8.53478724 Z" id="Path"></path>
                        <path d="M2.31781544,8.53478724 L2.31781544,12 L0,12 L0,6.53441218 C2.89729317,6.00118008 5.21811554,3.33573314 5.68213683,0 L8,0 C7.65191244,3.86720883 5.3329515,7.20118557 2.31781544,8.53478724 Z" id="Path-Copy" transform="translate(4.000000, 6.000000) scale(-1, 1) translate(-4.000000, -6.000000) "></path>
                    </g>
                </g>
            </g>
        </g>
    </g>
</svg>