<svg xmlns="http://www.w3.org/2000/svg" viewBox="0 0 93.01 342"><defs><style>.cls-1{fill:none;stroke:blue;stroke-miterlimit:10;}</style></defs><title>资源 4</title><g id="图层_2" data-name="图层 2"><g id="图层_6" data-name="图层 6"><path class="cls-1" d="M46.5.5a32.17,32.17,0,0,1,8,1c3,1,9,7,9,11,0,.88,0,2.09-.13,3.5A153,153,0,0,1,61.5,32.5c-1,5-5,9-5,9v10s18.27,11.14,24,14c8,4,8,11,8,11l1,15s2,11,2,16v20s1,10,1,18,.17,10-1,17c-1.07,6.35-.4,8.07-1,10a65.47,65.47,0,0,1-1,13c-1,5-9,14-10,14s0-4,0-4a12.38,12.38,0,0,0,2-3c1-2,4-5,3-6-2-2-4,3-4,3a56.38,56.38,0,0,0,1-7c0-2,.66-10.63,1-12,1-4,0-12-1-15s-5.1-14-5-18c.06-2.46-.56-13.09-1-26,0-.43.07-1.78.21-3.64.51-6.79,1.79-20.36,1.79-20.36"/></g><g id="图层_10" data-name="图层 10"><path class="cls-1" d="M63.5,16.5s3-1,3,2c0,2-3,8-4,8"/><path class="cls-1" d="M46.51.5a32.17,32.17,0,0,0-8,1c-3,1-9,7-9,11,0,.88,0,2.09.13,3.5a153,153,0,0,0,1.87,16.5c1,5,5,9,5,9v10s-18.27,11.14-24,14c-8,4-8,11-8,11l-1,15s-2,11-2,16v20s-1,10-1,18-.17,10,1,17c1.07,6.35.4,8.07,1,10a65.47,65.47,0,0,0,1,13c1,5,9,14,10,14s0-4,0-4a12.38,12.38,0,0,1-2-3c-1-2-4-5-3-6,2-2,4,3,4,3a56.38,56.38,0,0,1-1-7c0-2-.66-10.63-1-12-1-4,0-12,1-15s5.1-14,5-18c-.06-2.46.56-13.09,1-26,0-.43-.07-1.78-.21-3.64-.51-6.79-1.79-20.36-1.79-20.36"/><path class="cls-1" d="M29.51,16.5s-3-1-3,2c0,2,3,8,4,8"/><path class="cls-1" d="M38.51,238.5s-2,3-4,3-6-2-6-2"/><path class="cls-1" d="M46.51,137.5a26.39,26.39,0,0,1-7-1"/><path class="cls-1" d="M17.51,107.5s3,8,3,11,2,6,2,9-2,6-3,9-6,20-6,22-2,9-2,17,3,27,5,37,4,15,4,20-1,30,0,38,5,30,6,34,3,15,2,17-4,6-6,7a13.38,13.38,0,0,1-5,1,1.39,1.39,0,0,0,0,2c1,1,14,10,18,10s7-3,7-6-3-12-3-15-1-28,0-33,2-20,2-28,1-37,1-44,0-24,1-30,3-13,3-13"/></g><g id="图层_9" data-name="图层 9"><path class="cls-1" d="M54.5,238.5s2,3,4,3,6-2,6-2"/><path class="cls-1" d="M46.5,137.5a26.39,26.39,0,0,0,7-1"/></g><g id="图层_8" data-name="图层 8"><path class="cls-1" d="M75.5,107.5s-3,8-3,11-2,6-2,9,2,6,3,9,6,20,6,22,2,9,2,17-3,27-5,37-4,15-4,20,1,30,0,38-5,30-6,34-3,15-2,17,4,6,6,7a13.38,13.38,0,0,0,5,1,1.39,1.39,0,0,1,0,2c-1,1-14,10-18,10s-7-3-7-6,3-12,3-15,1-28,0-33-2-20-2-28-1-37-1-44,0-24-1-30-3-13-3-13"/></g></g></svg>