<svg xmlns="http://www.w3.org/2000/svg" viewBox="0 0 118 202.77"><defs><style>.cls-1{fill:none;stroke:#4b60f7;stroke-miterlimit:10;}</style></defs><title>资源 1</title><g id="图层_2" data-name="图层 2"><g id="图层_23" data-name="图层 23"><path class="cls-1" d="M59,132.32S63.63,148.42,64.4,153s.73,22.23-.85,29.12-.82,17.63,0,19.16,3.12.77,4.68.78S69.75,199,69.75,199s1.55,3.07,3.89,2.31,1.57-2.3,1.57-2.3.77,2.3,2.33,2.3,1.57-2.3,1.57-2.3a2.88,2.88,0,0,0,2.34,1.54c1.56,0,.78-1.53,1.56-1.53s3.12-.76,3.13-3.06-3.11-5.37-4.66-7.67-2.32-8.44-2.31-11.5,1.62-25.29,3.19-32.18-.69-37.56-.69-37.56c0-2.3-3.07-22.23-3.07-22.23l17.09,28.4-1.58,7.66c-.79,3.83,0,8.43,2.32,9.2s3.14-6.89,4.7-6.89,1.55,3.84,3.1,6.9,3.89,3.84,4.67,3.08-2.32-7.67-2.32-7.67,3.89,6.14,4.67,5.38-1.55-6.13-1.55-6.13,2.33,5.37,3.89,5.37-.76-6.9-.76-6.9,1.55,3.07,3.11,3.84,1.56,0,1.56-.76-.77-3.83-3.1-7.67-6.22-6.91-7.78-8.45S95,93.31,89.52,83.34,80.19,69.52,77.86,67.21s-10.13-2.32-11.69-3.09a2.71,2.71,0,0,1-1.55-2.3"/><path class="cls-1" d="M59,132.32S54.27,148.4,53.48,153s-.83,22.22.71,29.13.74,17.63,0,19.16S51,202,49.47,202,47.91,199,47.91,199,46.35,202,44,201.26s-1.55-2.3-1.55-2.3-.79,2.3-2.35,2.29-1.55-2.3-1.55-2.3a2.88,2.88,0,0,1-2.34,1.53c-1.56,0-.78-1.53-1.56-1.54s-3.12-.77-3.11-3.07,3.13-5.36,4.7-7.65,2.36-8.43,2.37-11.49-1.5-25.3-3-32.2.87-37.55.87-37.55c0-2.3,3.17-22.22,3.17-22.22L22.37,113.08l1.54,7.67c.77,3.83,0,8.43-2.36,9.19s-3.1-6.9-4.66-6.91-1.57,3.83-3.14,6.89S9.84,133.74,9.06,133s2.36-7.66,2.36-7.66-3.91,6.12-4.69,5.35,1.57-6.13,1.57-6.13S6,129.9,4.39,129.9s.8-6.9.8-6.9-1.57,3.06-3.13,3.83-1.56,0-1.56-.77.79-3.83,3.14-7.66,6.26-6.88,7.82-8.41S23.2,93.15,28.68,83.2s9.39-13.77,11.74-16.07,10.15-2.28,11.71-3a2.71,2.71,0,0,0,1.57-2.3"/><path class="cls-1" d="M58.37,61.81s3.9.78,11.71-2.27,10.16-8.41,10.16-9.17l0-16.09-11.7,0s0-3.83.79-5.36-3.9.76-4.69,3.06l-.79,2.3H58.43s-12.48.74-15.6,1.5a22.19,22.19,0,0,1-4.68.76s0,13,1.52,15.33,4.67,6.14,7.78,7.68S58.37,61.81,58.37,61.81Z"/><path class="cls-1" d="M74,58.78s8.58-1.51,12.49-4.57,7-7.65,7.06-15.31-3.86-17.64-5.41-21.47S82.67,7.44,77.22,5.9,67.09.51,61.63.5,47.59,2,42.11,6.59s-9.38,9.18-10.95,12.24-3.14,10-5.49,13.78S24.1,37.21,21.76,38s-.79,2.3,0,2.3a2.74,2.74,0,0,1,1.56.77s0,3.83.77,5.37,4.66,6.91,10.12,8.45a35.43,35.43,0,0,0,8.58,1.55"/></g></g></svg>