<svg xmlns="http://www.w3.org/2000/svg" viewBox="0 0 96.14 322"><defs><style>.cls-1,.cls-2{fill:none;stroke-miterlimit:10;}.cls-1{stroke:blue;}.cls-2{stroke:#0321f9;}</style></defs><title>资源 2</title><g id="图层_2" data-name="图层 2"><g id="图层_4" data-name="图层 4"><path class="cls-1" d="M64.37,16.75a2.07,2.07,0,0,1,2.77-1.25c2,1,2,3,1,6a6.83,6.83,0,0,1-4,4"/><path class="cls-1" d="M59,42.18v8.38s1,1.86,7.24,3.72S87.94,60.81,90,66.39s2.07,15.83,3.1,22.35,1,7.45,1,9.31-1,20.48,0,21.41,1,23.28,1,23.28,1,14,0,16.76a43.21,43.21,0,0,0-2.07,8.38c0,.93-1,7.45-1,8.38s-6.2,8.38-7.24,9.31l-3.1,2.79V183.7A26.22,26.22,0,0,0,85.87,179c1-1.86,0-5.59,0-5.59s-1-.93-2.07.93,0,3.72-1,4.66l-1,.93V166a9.3,9.3,0,0,1,2.07-4.66c1-.93,2.07-7.45,2.07-9.31s-6.2-13-6.2-16.76c-1-5.59,0-23.28,0-25.14,0-1.16-.4-4.88-.71-8-.18-1.84-.33-3.45-.33-4.15,0-1.86,0-10.24,1-11.17"/><ellipse class="cls-1" cx="49.07" cy="136.22" rx="1.03" ry="0.93"/><path class="cls-1" d="M78.63,101.77s-3.1,7.45-3.1,10.24-1,9.31-1,12.1,2.07,10.24,3.1,12.1,4.14,14.9,5.17,16.76,1,8.38,1,8.38"/><path class="cls-1" d="M81.74,187.43s-4.14,17.69-5.17,25.14-1,23.28-1,29.79-5.17,32.59-6.2,37.24-1,2.79-2.07,6.52,0,12.1,0,13,5.17,9.31,6.2,12.1a16.5,16.5,0,0,1,1,6.52c0,1.86-1,2.79-2.07,2.79s-1-1.86-2.07-1.86,0,2.79-2.07,2.79-1-2.79-2.07-2.79,0,2.79-2.07,2.79-1-2.79-2.07-2.79,0,2.79-2.07,2.79-1-3.72-2.07-3.72,0,3.72-2.07,3.72-2.07-2.79-2.07-2.79v-8.38c0-1.86,2.07-4.66,2.07-5.59,0-2.79-1-2.79-1-4.66s1-6.52,1-9.31,1-11.17,0-17.69a222.23,222.23,0,0,1-2.07-25.14V234c0-.93-2.07-5.59-2.07-8.38s-1-31.66-1-31.66V178.12l-3.1-18.62"/><path class="cls-1" d="M55.89,90.6s7.24,3.72,12.41,2.79,6.2-2.79,6.2-2.79"/><path class="cls-1" d="M59,235.84a6,6,0,0,0,6.2,1.86c4.14-.93,5.17-1.86,5.17-1.86"/><ellipse class="cls-1" cx="49.07" cy="136.22" rx="1.03" ry="0.93"/><path class="cls-1" d="M37.15,42.18v8.38s-1,1.86-7.24,3.72S8.2,60.81,6.13,66.39,4.06,82.22,3,88.74,2,96.19,2,98s1,20.48,0,21.41-1,23.28-1,23.28-1,14,0,16.76A43.21,43.21,0,0,1,3,167.88c0,.93,1,7.45,1,8.38s6.2,8.38,7.24,9.31l3.1,2.79V183.7A26.22,26.22,0,0,1,10.27,179c-1-1.86,0-5.59,0-5.59s1-.93,2.07.93,0,3.72,1,4.66l1,.93V166a9.3,9.3,0,0,0-2.07-4.66c-1-.93-2.07-7.45-2.07-9.31s6.2-13,6.2-16.76c1-5.59,0-23.28,0-25.14,0-1.16.4-4.88.71-8,.18-1.84.33-3.45.33-4.15,0-1.86,0-10.24-1-11.17"/><ellipse class="cls-1" cx="48.06" cy="136.22" rx="1.03" ry="0.93"/><path class="cls-1" d="M17.5,101.77s3.1,7.45,3.1,10.24,1,9.31,1,12.1-2.07,10.24-3.1,12.1S14.4,151.12,13.37,153s-1,8.38-1,8.38"/><path class="cls-1" d="M14.4,187.43s4.14,17.69,5.17,25.14,1,23.28,1,29.79,5.17,32.59,6.2,37.24,1,2.79,2.07,6.52,0,12.1,0,13-5.17,9.31-6.2,12.1a16.5,16.5,0,0,0-1,6.52c0,1.86,1,2.79,2.07,2.79s1-1.86,2.07-1.86,0,2.79,2.07,2.79,1-2.79,2.07-2.79,0,2.79,2.07,2.79,1-2.79,2.07-2.79,0,2.79,2.07,2.79,1-3.72,2.07-3.72,0,3.72,2.07,3.72,2.07-2.79,2.07-2.79v-8.38c0-1.86-2.07-4.66-2.07-5.59,0-2.79,1-2.79,1-4.66s-1-6.52-1-9.31-1-11.17,0-17.69a222.23,222.23,0,0,0,2.07-25.14V234c0-.93,2.07-5.59,2.07-8.38s1-31.66,1-31.66V178.12l3.1-18.62"/><path class="cls-1" d="M40.25,90.6S33,94.32,27.84,93.39s-6.2-2.79-6.2-2.79"/><path class="cls-1" d="M37.15,235.84a6,6,0,0,1-6.2,1.86c-4.14-.93-5.17-1.86-5.17-1.86"/><ellipse class="cls-1" cx="48.06" cy="136.22" rx="1.03" ry="0.93"/><path class="cls-1" d="M30.56,15.75a2.07,2.07,0,0,0-2.77-1.25c-2,1-2,3-1,6a6.83,6.83,0,0,0,4,4"/></g><g id="图层_21" data-name="图层 21"><path class="cls-2" d="M47.89,46.5H51c1,0,5.23-2,9.42-6s4.19-11,4.19-11v-16a10.56,10.56,0,0,0-2.06-5.77A17.39,17.39,0,0,0,58.36,3.5C54.17.5,46.84.5,46.84.5"/><path class="cls-2" d="M64.64,18.5"/><path class="cls-2" d="M42.13,12.38s3.14-.76,5.23,0,5.23.76,6.28,0"/><path class="cls-2" d="M42.13,15.38s3.14-.76,5.23,0,5.23.76,6.28,0"/><path class="cls-2" d="M46.84,28.5h6.28c2.09,0,3.14,3,3.14,3v5H46.84"/><line class="cls-2" x1="49.98" y1="32.5" x2="49.98" y2="35.5"/><line class="cls-2" x1="53.12" y1="32.5" x2="53.12" y2="35.5"/><path class="cls-2" d="M47.75,46.5H44.61c-1,0-5.23-2-9.42-6S31,29.5,31,29.5v-16a10.56,10.56,0,0,1,2.06-5.77A17.39,17.39,0,0,1,37.28,3.5c4.19-3,11.51-3,11.51-3"/><path class="cls-2" d="M31,18.5"/><path class="cls-2" d="M48.79,28.5H42.51c-2.09,0-3.14,3-3.14,3v5h9.42"/><line class="cls-2" x1="45.65" y1="32.5" x2="45.65" y2="35.5"/><line class="cls-2" x1="42.51" y1="32.5" x2="42.51" y2="35.5"/></g></g></svg>