<svg xmlns="http://www.w3.org/2000/svg" viewBox="0 0 90.5 342.66"><defs><style>.cls-1{fill:none;stroke:blue;stroke-miterlimit:10;}</style></defs><title>资源 5</title><g id="图层_2" data-name="图层 2"><g id="图层_7" data-name="图层 7"><path class="cls-1" d="M44.68.5s4.7-.23,13.59,5c3.4,2,6.8,5,7.93,10,.92,4,1.13,13,2.27,18s3.4,17,3.4,17-4.53,3-9.06,3h-8.5"/><path class="cls-1" d="M44.68,23.5s6.8,0,10.2,1a51.39,51.39,0,0,1,5.66,2s0,12-3.4,16A21,21,0,0,1,54,45.38c-3.68,2.84-7.07,5.12-9.33,5.12"/></g><g id="图层_13" data-name="图层 13"><path class="cls-1" d="M53.75,45.5s-1.13,10,0,11,10.2,5,18.13,9,11.33,8,12.46,12,1.13,20,1.13,23-1.13,15,0,19,3.4,10,3.4,13,1.13,25,1.13,31v14s-2.27,11-3.4,13-6.8,9-6.8,9-3.4,3-4.53,3-1.13-2,0-3a22.58,22.58,0,0,0,4.53-5,23.18,23.18,0,0,0,2.27-7c0-1-2.27,5-4.53,6s-2.27-1-2.27-1l1.13-7a44,44,0,0,1,2.27-5l2.27-4c1.13-2,2.27-11,1.13-13s-4.53-14-6.8-21a73.26,73.26,0,0,1-3.4-18v-15"/></g><g id="图层_14" data-name="图层 14"><path class="cls-1" d="M45.82,179.5s1.13,57,1.13,63,1.13,40,2.27,49,0,26-1.13,30a70.63,70.63,0,0,0-1.13,11c0,3-1,6.21,0,8,1.13,2,2.27,2,3.4,1l1.13-3h0c0,1,1.13,3,2.27,3a2.31,2.31,0,0,0,2.27-2c0-1,1.13,2,2.27,2s2.27-3,2.27-2a2.31,2.31,0,0,0,2.27,2c1.13,0,1.13-2,2.27-2s1.13,3,2.27,1,1.13-4,0-8-5.66-10-6.8-14,2.27-15,4.53-27,1.13-52,1.13-58,6.8-27,7.93-41,1.13-39,0-46-7.93-21-7.93-25,5.66-12,5.66-12"/><path class="cls-1" d="M45.82.5s-4.7-.23-13.59,5c-3.4,2-6.8,5-7.93,10-.92,4-1.13,13-2.27,18s-3.4,17-3.4,17,4.53,3,9.06,3h8.5"/><path class="cls-1" d="M45.82,23.5s-6.8,0-10.2,1a51.39,51.39,0,0,0-5.66,2s0,12,3.4,16a21,21,0,0,0,3.13,2.88c3.68,2.84,7.07,5.12,9.33,5.12"/><path class="cls-1" d="M36.75,45.5s1.13,10,0,11-10.2,5-18.13,9-11.33,8-12.46,12S5,97.5,5,100.5s1.13,15,0,19-3.4,10-3.4,13S.5,157.5.5,163.5v14s2.27,11,3.4,13,6.8,9,6.8,9,3.4,3,4.53,3,1.13-2,0-3a22.58,22.58,0,0,1-4.53-5,23.18,23.18,0,0,1-2.27-7c0-1,2.27,5,4.53,6s2.27-1,2.27-1l-1.13-7a44,44,0,0,0-2.27-5l-2.27-4c-1.13-2-2.27-11-1.13-13s4.53-14,6.8-21a73.26,73.26,0,0,0,3.4-18v-15"/><path class="cls-1" d="M44.68,179.5s-1.13,57-1.13,63-1.13,40-2.27,49,0,26,1.13,30a70.63,70.63,0,0,1,1.13,11c0,3,1,6.21,0,8-1.13,2-2.27,2-3.4,1l-1.13-3h0c0,1-1.13,3-2.27,3a2.31,2.31,0,0,1-2.27-2c0-1-1.13,2-2.27,2s-2.27-3-2.27-2a2.31,2.31,0,0,1-2.27,2c-1.13,0-1.13-2-2.27-2s-1.13,3-2.27,1-1.13-4,0-8,5.66-10,6.8-14-2.27-15-4.53-27-1.13-52-1.13-58-6.8-27-7.93-41-1.13-39,0-46,7.93-21,7.93-25-5.66-12-5.66-12"/></g><g id="图层_4" data-name="图层 4"><path class="cls-1" d="M51.5,237.5a5.57,5.57,0,0,0,6,2c4-1,5-2,5-2"/><path class="cls-1" d="M40.39,237.5a5.57,5.57,0,0,1-6,2c-4-1-5-2-5-2"/><circle class="cls-1" cx="44.94" cy="141.5" r="1"/></g></g></svg>