<svg xmlns="http://www.w3.org/2000/svg" viewBox="0 0 95.95 335.5"><defs><style>.cls-1{fill:none;stroke:blue;stroke-miterlimit:10;}</style></defs><title>资源 6</title><g id="图层_2" data-name="图层 2"><g id="图层_9" data-name="图层 9"><path class="cls-1" d="M40.24,239.5s-2,3-4,3-6-2-6-2"/><path class="cls-1" d="M56.23,239.5s2,3,4,3,6-2,6-2"/><path class="cls-1" d="M47.24,142.5a26.39,26.39,0,0,1-7-1"/><path class="cls-1" d="M47.23,142.5a26.39,26.39,0,0,0,7-1"/></g><g id="图层_17" data-name="图层 17"><path class="cls-1" d="M47.76.5S61,.5,65.46,7.11,68.78,20.34,71,27A81.57,81.57,0,0,1,74.31,43c0,.66-8.73,2.26-16.23,3.15-3.18.38-7.89.63-9.86.63"/></g><g id="图层_18" data-name="图层 18"><path class="cls-1" d="M82.23,174.38"/><path class="cls-1" d="M82.23,184.77"/><path class="cls-1" d="M57.72,46.8s-1.11,3.78,1.11,5.67S75.42,60,84.27,63.81c8.85,4.72,4.42,39.69,5.53,45.36s4.42,30.24,4.42,39.69,2,9.45.89,20.79a24.94,24.94,0,0,1-.89,6.61,25.54,25.54,0,0,1-3.9,7.56c-1.13,1.89-6.8,8.5-6.8,8.5s-3.4,2.83-4.53,2.83-1.13-1.89,0-2.83a21.83,21.83,0,0,0,4.53-4.72A21,21,0,0,0,85.8,181c0-.94-2.27,4.72-4.53,5.67s-2.27-.94-2.27-.94l1.13-6.61a28.7,28.7,0,0,1,1.09-4.72l3-8.5c2-9.45,1.15-10.39,1.15-10.39-.15-4.72-4.42-17-4.42-17s-5.53-14.17-5.53-20.79.81-16.06.81-16.06"/><path class="cls-1" d="M48.19.5S34.91.5,30.49,7.11,27.17,20.34,25,27A81.57,81.57,0,0,0,21.64,43c0,.66,8.73,2.26,16.23,3.15,3.18.38,7.89.63,9.86.63"/><path class="cls-1" d="M13.73,174.38"/><path class="cls-1" d="M13.73,184.77"/><path class="cls-1" d="M38.23,46.8s1.11,3.78-1.11,5.67S20.53,60,11.68,63.81c-8.85,4.72-4.43,39.69-5.53,45.36s-4.43,30.24-4.43,39.69-2,9.45-.89,20.79a24.94,24.94,0,0,0,.89,6.61,25.54,25.54,0,0,0,3.9,7.56c1.13,1.89,6.8,8.5,6.8,8.5s3.4,2.83,4.53,2.83,1.13-1.89,0-2.83a21.83,21.83,0,0,1-4.53-4.72A21,21,0,0,1,10.16,181c0-.94,2.27,4.72,4.53,5.67s2.27-.94,2.27-.94l-1.13-6.61a28.7,28.7,0,0,0-1.09-4.72l-3-8.5c-2-9.45-1.15-10.39-1.15-10.39.15-4.72,4.43-17,4.43-17s5.53-14.17,5.53-20.79-.81-16.06-.81-16.06"/><path class="cls-1" d="M18.32,97.83a81.76,81.76,0,0,0,4.42,9.45c2.21,3.78,3.32,9.45,2.21,12.28s-6.64,14.17-7.74,19.84-.45,18-1.11,28.35,2.62,33.07,5.53,41.58c1,2.87,2.21,9.72,3.32,15.39s0,39.91,0,46.52,3.32,25.73,4.43,27.62,2.21,21.79,1.11,22.73-2.21,1.89-6.64,2.83-7.74,0-8.85.94a3,3,0,0,0,1.11,4.72,103.52,103.52,0,0,0,13.28,3.78c4.43.94,8.85,1.89,12.17,0s1.11-11.34,1.11-11.34-1.11-26.51-1.11-28.4,2.21-22,2.21-24.79,1.11-40.85,1.11-40.85,1-24.85.86-27.68c-.14-3.78,2-31.18,2-31.18"/></g><g id="图层_19" data-name="图层 19"><path class="cls-1" d="M77.63,97.83a81.76,81.76,0,0,1-4.42,9.45c-2.21,3.78-3.32,9.45-2.21,12.28s6.64,14.17,7.74,19.84.45,18,1.11,28.35-2.62,33.07-5.53,41.58c-1,2.87-2.21,9.72-3.32,15.39s0,39.91,0,46.52S67.68,297,66.57,298.89s-2.21,21.79-1.11,22.73,2.21,1.89,6.64,2.83,7.74,0,8.85.94a3,3,0,0,1-1.11,4.72,103.52,103.52,0,0,1-13.27,3.78c-4.43.94-8.85,1.89-12.17,0s-1.11-11.34-1.11-11.34,1.11-26.51,1.11-28.4-2.21-22-2.21-24.79-1.11-40.85-1.11-40.85-1-24.85-.86-27.68c.14-3.78-2-31.18-2-31.18"/></g></g></svg>