<svg xmlns="http://www.w3.org/2000/svg" viewBox="0 0 93 344.16"><defs><style>.cls-1{fill:none;stroke:blue;stroke-miterlimit:10;}</style></defs><title>资源 3</title><g id="图层_2" data-name="图层 2"><g id="图层_2-2" data-name="图层 2"><path class="cls-1" d="M57.06,43.66v9s1,2,7,4,21,7,23,13,2,17,3,24,1,8,1,10-1,22,0,23,1,25,1,25,1,15,0,18a50.73,50.73,0,0,0-2,9c0,1-1,8-1,9s-6,9-7,10l-3,3v-5a27.36,27.36,0,0,0,4-5c1-2,0-6,0-6s-1-1-2,1,0,4-1,5l-1,1v-15a10.56,10.56,0,0,1,2-5c1-1,2-8,2-10s-6-14-6-18c-1-6,0-25,0-27,0-1.25-.39-5.24-.68-8.54-.18-2-.32-3.71-.32-4.46,0-2,0-11,1-12"/><circle class="cls-1" cx="46.5" cy="144.66" r="1"/></g><g id="图层_3" data-name="图层 3"><path class="cls-1" d="M76.06,107.66s-3,8-3,11-1,10-1,13,2,11,3,13,4,16,5,18,1,9,1,9"/><path class="cls-1" d="M79.06,199.66s-4,19-5,27-1,25-1,32-5,35-6,40-1,3-2,7,0,13,0,14,5,10,6,13a19.52,19.52,0,0,1,1,7c0,2-1,3-2,3s-.94-2-2-2,0,3-2,3-1-3-2-3,0,3-2,3-1-3-2-3,0,3-2,3-1-4-2-4,0,4-2,4-2-3-2-3v-9c0-2,2-5,2-6,0-3-1-3-1-5s1-7,1-10,1-12,0-19a264.54,264.54,0,0,1-2-27v-15c0-1-2-6-2-9s-1-34-1-34v-17l-3-20"/></g><g id="图层_5" data-name="图层 5"><path class="cls-1" d="M54.06,95.66s7,4,12,3,6-3,6-3"/><path class="cls-1" d="M57.06,251.66a5.57,5.57,0,0,0,6,2c4-1,5-2,5-2"/></g><g id="图层_4" data-name="图层 4"><path class="cls-1" d="M46.06.66a15.3,15.3,0,0,1,10,2c5,3,6,4,7,9,.07.35.12.74.17,1.18a73.69,73.69,0,0,1-1.17,18.82c-1,5-2,9-7,14s-9,4-9,4"/><path class="cls-1" d="M35.94,43.66v9s-1,2-7,4-21,7-23,13-2,17-3,24-1,8-1,10,1,22,0,23-1,25-1,25-1,15,0,18a50.73,50.73,0,0,1,2,9c0,1,1,8,1,9s6,9,7,10l3,3v-5a27.36,27.36,0,0,1-4-5c-1-2,0-6,0-6s1-1,2,1,0,4,1,5l1,1v-15a10.56,10.56,0,0,0-2-5c-1-1-2-8-2-10s6-14,6-18c1-6,0-25,0-27,0-1.25.39-5.24.68-8.54.18-2,.32-3.71.32-4.46,0-2,0-11-1-12"/><circle class="cls-1" cx="46.5" cy="144.66" r="1"/><path class="cls-1" d="M16.94,107.66s3,8,3,11,1,10,1,13-2,11-3,13-4,16-5,18-1,9-1,9"/><path class="cls-1" d="M13.94,199.66s4,19,5,27,1,25,1,32,5,35,6,40,1,3,2,7,0,13,0,14-5,10-6,13a19.52,19.52,0,0,0-1,7c0,2,1,3,2,3s.94-2,2-2,0,3,2,3,1-3,2-3,0,3,2,3,1-3,2-3,0,3,2,3,1-4,2-4,0,4,2,4,2-3,2-3v-9c0-2-2-5-2-6,0-3,1-3,1-5s-1-7-1-10-1-12,0-19a264.54,264.54,0,0,0,2-27v-15c0-1,2-6,2-9s1-34,1-34v-17l3-20"/><path class="cls-1" d="M38.94,95.66s-7,4-12,3-6-3-6-3"/><path class="cls-1" d="M35.94,251.66a5.57,5.57,0,0,1-6,2c-4-1-5-2-5-2"/><path class="cls-1" d="M46.94.66a15.3,15.3,0,0,0-10,2c-5,3-6,4-7,9-.07.35-.12.74-.17,1.18a73.69,73.69,0,0,0,1.17,18.82c1,5,2,9,7,14s9,4,9,4"/><path class="cls-1" d="M29.71,17.91a2.07,2.07,0,0,0-2.77-1.25c-2,1-2,3-1,6a6.83,6.83,0,0,0,4,4"/><path class="cls-1" d="M63.29,17.91a2.07,2.07,0,0,1,2.77-1.25c2,1,2,3,1,6a6.83,6.83,0,0,1-4,4"/></g></g></svg>