<svg id="图层_2" data-name="图层 2" xmlns="http://www.w3.org/2000/svg" viewBox="0 0 472.53 456"><defs><style>.cls-1{fill:#fff;}.cls-2{fill:#1f1ae5;}.cls-3{fill:#1b1b38;}.cls-4{fill:#f20a41;}</style></defs><title>ai</title><path class="cls-1" d="M575.94,275c-31.23,15.83-68.29,25-108,25s-76.82-9.18-108-25c-56.18,34.16-93.45,94.17-93.45,162.51,0,106.31,90.21,192.5,201.5,192.5s201.5-86.19,201.5-192.5C669.39,369.17,632.12,309.15,575.94,275Z" transform="translate(-231.26 -174)"/><path class="cls-1" d="M467.89,275c-34.26,0-66.24-5.17-93.37-14.12Q367,264.65,359.85,269c31.23,15.83,68.29,25,108,25s76.82-9.18,108-25q-7.14-4.34-14.68-8.11C534.14,269.83,502.15,275,467.89,275Z" transform="translate(-231.26 -174)"/><path class="cls-1" d="M467.89,258c-25.85,0-49.29-5.06-66.48-13.26a205.47,205.47,0,0,0-26.88,11.14c27.12,8.95,59.11,14.12,93.37,14.12s66.24-5.17,93.37-14.12a205.47,205.47,0,0,0-26.88-11.14C517.18,252.94,493.74,258,467.89,258Z" transform="translate(-231.26 -174)"/><path class="cls-1" d="M534.39,239.74A207.69,207.69,0,0,0,505,232.26c-6.59-2.8-12.79-6.49-16.56-11.26-19-24-21-47-21-47s-2,23-21,47c-3.92,4.95-10.42,8.73-17.29,11.57a207.61,207.61,0,0,0-27.7,7.16l.44.2-.45.07h.6c17.14,8,40.34,13,65.9,13C493.75,253,517.19,247.94,534.39,239.74Z" transform="translate(-231.26 -174)"/><path class="cls-2" d="M467.89,356c-88,0-159.25,52.83-159.25,118s71.3,118,159.25,118,159.25-52.83,159.25-118S555.85,356,467.89,356Zm0,229c-83.4,0-151-49.7-151-111s67.6-111,151-111,151,49.7,151,111S551.29,585,467.89,585Z" transform="translate(-231.26 -174)"/><ellipse class="cls-3" cx="236.64" cy="300" rx="151" ry="111"/><rect class="cls-1" x="165.74" y="242" width="19" height="45" rx="9.5" ry="9.5"/><rect class="cls-1" x="288.74" y="242" width="19" height="45" rx="9.5" ry="9.5"/><path class="cls-1" d="M694,407l-.28-.07-5.09,84,.29-.06c5.76.35,10.83-5.09,11.25-12.09l3.54-58.45C704.18,413.33,699.81,407.31,694,407Z" transform="translate(-231.26 -174)"/><polygon class="cls-4" points="445.59 319.36 457.42 316.93 462.51 232.9 450.99 230.1 445.59 319.36"/><path class="cls-1" d="M673.32,401.92a8.91,8.91,0,0,0-4.59,1,184.94,184.94,0,0,1-5.47,90.82,8.9,8.9,0,0,0,4.41,1.52l9.18-1.89,5.41-89.27Z" transform="translate(-231.26 -174)"/><path class="cls-1" d="M241,411l.28-.07,5.09,84-.29-.06c-5.76.35-10.83-5.09-11.25-12.09l-3.54-58.45C230.86,417.33,235.23,411.31,241,411Z" transform="translate(-231.26 -174)"/><polygon class="cls-4" points="26.94 323.36 15.11 320.93 10.02 236.9 21.54 234.1 26.94 323.36"/><path class="cls-1" d="M261.73,405.92a8.91,8.91,0,0,1,4.59,1,184.94,184.94,0,0,0,5.47,90.82,8.9,8.9,0,0,1-4.41,1.52l-9.18-1.89-5.41-89.27Z" transform="translate(-231.26 -174)"/></svg>